<?xml version="1.0" encoding="UTF-8" standalone="no"?>
<!DOCTYPE svg PUBLIC "-//W3C//DTD SVG 1.1//EN" "http://www.w3.org/Graphics/SVG/1.1/DTD/svg11.dtd">
<svg width="100%" height="100%" viewBox="0 0 20842 20842" version="1.1" xmlns="http://www.w3.org/2000/svg" xmlns:xlink="http://www.w3.org/1999/xlink" xml:space="preserve" xmlns:serif="http://www.serif.com/" style="fill-rule:evenodd;clip-rule:evenodd;stroke-linejoin:round;stroke-miterlimit:2;">
    <g transform="matrix(4.16667,0,0,4.16667,0,0)">
        <path d="M479.011,2056.51C575.976,2052.2 620.148,2042.56 675.469,2041.43C743.918,2040.03 813.645,2052.95 880.165,2036.76C889.016,2034.6 898.17,2031.69 904.452,2025.09C910.733,2018.49 912.907,2007.16 906.871,2000.33C900.162,1992.75 888.203,1994.45 878.155,1995.71C849.929,1999.24 821.438,1994.14 793.289,1990.03C708.226,1977.62 621.86,1974.19 536.076,1979.72C492.303,1982.54 449.389,1991.2 405.867,1995.01C381.297,1997.16 358.157,1992.87 376.138,2025.78C395.638,2061.48 444.065,2058.07 479.011,2056.51Z" style="fill:rgb(194,196,196);fill-rule:nonzero;"/>
        <path d="M4088.39,3555.55C4088.14,3464.46 4087.46,3364.36 4087.21,3273.27C4060.04,3307.7 3841.29,3385.81 3904.22,3450.83C3923.33,3470.58 4005.46,3443.16 4029.73,3463.05C4058.49,3486.63 4080.35,3518.99 4088.39,3555.55Z" style="fill:rgb(194,196,196);fill-rule:nonzero;"/>
        <path d="M3441.45,3522.7C3531.85,3510.97 3623.73,3495.11 3703.95,3451.8C3784.17,3408.49 3851.93,3332.92 3863.93,3242.54C3767.19,3250.35 3686.79,3316.22 3608.19,3373.17C3529.6,3430.11 3434.37,3482.93 3340.11,3459.82C3343,3492.71 3368.63,3522.34 3400.76,3529.94C3432.9,3537.53 3469.09,3522.5 3486.39,3494.38" style="fill:rgb(194,196,196);fill-rule:nonzero;"/>
        <path d="M2780.7,4282.56C2865.59,4315.14 2950.48,4347.71 3035.36,4380.28C3022.57,4320.7 3020.28,4258.69 3028.66,4198.38C3020.57,4200.48 3012.48,4202.59 3004.4,4204.7" style="fill:rgb(194,196,196);fill-rule:nonzero;"/>
        <path d="M2407.7,4256.63C2404.34,4258.13 2400.98,4259.62 2397.62,4261.12C2481.9,4271.05 2563.82,4300.51 2635.12,4346.52C2623.13,4287.65 2621.81,4226.62 2631.25,4167.28" style="fill:rgb(194,196,196);fill-rule:nonzero;"/>
        <path d="M3263,3164.03C3262.51,3164.03 3262.02,3164 3261.52,3163.93C3261.05,3163.86 3260.58,3163.77 3260.1,3163.67C3259.82,3163.64 3259.54,3163.59 3259.26,3163.53C3223.44,3156.43 3186.96,3149.18 3149.92,3141.63C3149.73,3141.6 3149.55,3141.56 3149.38,3141.51C3108.33,3133.11 3064.3,3123.99 3020.32,3114.24C3020.14,3114.21 3019.96,3114.17 3019.78,3114.13C2986.96,3106.88 2957.86,3100.19 2930.85,3093.67C2930.57,3093.63 2930.29,3093.57 2930,3093.5C2844.41,3072.95 2770.95,3052.58 2705.42,3031.22C2701.67,3030 2698.84,3026.9 2697.98,3023.05L2688.8,2982.09C2676.73,2928.1 2664.24,2872.28 2650.75,2815.24C2649.33,2809.23 2653.05,2803.21 2659.06,2801.79C2665.02,2800.36 2671.09,2804.09 2672.51,2810.09C2686.02,2867.27 2698.52,2923.16 2710.62,2977.21L2718.39,3011.93C2781.68,3032.34 2852.49,3051.89 2934.62,3071.63C2934.87,3071.67 2935.13,3071.72 2935.38,3071.78C2962.32,3078.28 2991.36,3084.96 3024.13,3092.2C3024.32,3092.23 3024.51,3092.27 3024.69,3092.31C3068.74,3102.09 3112.92,3111.24 3154.09,3119.66L3154.09,3119.67C3154.27,3119.7 3154.44,3119.74 3154.61,3119.78C3186.9,3126.36 3218.75,3132.71 3250.11,3138.93C3231.71,2991.96 3198.04,2800.32 3161.14,2632.7C2992.84,2599.71 2810.87,2574.93 2605.65,2557.07C2623.29,2614.36 2641.35,2681.19 2660.68,2760.67C2662.14,2766.67 2658.46,2772.71 2652.46,2774.17C2646.47,2775.6 2640.41,2771.95 2638.96,2765.95C2617.93,2679.48 2598.44,2608.15 2579.37,2547.88C2578.24,2544.33 2578.96,2540.44 2581.29,2537.53C2583.62,2534.62 2587.22,2533.09 2590.97,2533.38C2806.75,2551.66 2997.02,2577.43 3172.64,2612.18C3176.99,2613.04 3180.43,2616.4 3181.39,2620.73C3220.15,2795.66 3255.57,2997.99 3273.83,3148.77L3274.12,3150.8C3274.23,3151.41 3274.28,3152.03 3274.28,3152.65C3274.28,3155.89 3272.87,3159.07 3270.42,3161.2C3268.35,3162.99 3265.71,3164.03 3263,3164.03Z" style="fill-rule:nonzero;"/>
        <path d="M3270.46,3167.6C3264.97,3167.6 3260.18,3163.56 3259.41,3157.97C3258.55,3151.85 3262.82,3146.21 3268.93,3145.36C3285.26,3143.08 3307.5,3140.06 3333.16,3136.58C3441.34,3121.88 3604.83,3099.67 3649.23,3089.73C3655.25,3088.39 3661.23,3092.18 3662.57,3098.2C3663.92,3104.22 3660.13,3110.2 3654.1,3111.55C3608.79,3121.69 3444.73,3143.97 3336.17,3158.73C3310.54,3162.21 3288.33,3165.22 3272.01,3167.5C3271.49,3167.57 3270.97,3167.6 3270.46,3167.6Z" style="fill-rule:nonzero;"/>
        <path d="M3656.4,3111.26C3655.39,3111.26 3654.36,3111.12 3653.34,3110.83C3570.1,3087.23 3501.17,3075.37 3428.2,3062.82C3372.18,3053.17 3314.25,3043.21 3247.97,3027.39C3241.97,3025.95 3238.27,3019.93 3239.7,3013.92C3241.13,3007.92 3247.17,3004.2 3253.17,3005.65C3318.74,3021.3 3376.32,3031.21 3431.99,3040.79C3505.56,3053.45 3575.06,3065.41 3659.44,3089.32C3665.38,3091.01 3668.82,3097.19 3667.14,3103.13C3665.75,3108.04 3661.26,3111.26 3656.4,3111.26Z" style="fill-rule:nonzero;"/>
        <path d="M2980.91,2829.85C2982.73,2859.16 2965.02,2890.43 2940.27,2894.21C2917.95,2897.61 2896.82,2878.98 2886.01,2855.85C2876.34,2835.18 2873.18,2808.95 2882.31,2787.76C2910.28,2722.84 2977.61,2776.44 2980.91,2829.85Z" style="fill-rule:nonzero;"/>
        <path d="M2892.58,2792.18C2885.48,2808.65 2886.84,2831.24 2896.13,2851.11C2904.23,2868.43 2921.03,2885.84 2938.58,2883.16C2956.44,2880.43 2971.3,2855.36 2969.76,2830.54C2968.05,2803.04 2945.43,2773.38 2923.19,2769.51C2908.16,2766.89 2898.66,2778.06 2892.58,2792.18ZM2872.05,2783.33C2883.61,2756.48 2903.62,2743.41 2927.03,2747.49C2959.33,2753.12 2989.72,2791.28 2992.06,2829.16C2994.09,2861.91 2974.44,2900.3 2941.96,2905.25C2891.29,2912.96 2849.07,2836.68 2872.05,2783.33Z" style="fill-rule:nonzero;"/>
        <path d="M3661.93,3284.07C3628.18,3326.18 3583,3362.02 3531.29,3387.72C3527.57,3389.55 3523.12,3388.04 3521.3,3384.36C3519.46,3380.68 3520.97,3376.21 3524.65,3374.38C3574.45,3349.63 3617.9,3315.19 3650.3,3274.75C3652.88,3271.54 3657.56,3271.03 3660.77,3273.6C3663.99,3276.17 3664.5,3280.86 3661.93,3284.07ZM3017.19,3855.57C3001.61,3877.77 2979.12,3897.8 2983.79,3919.73C2986.25,3931.22 2996.39,3942.29 3002.4,3955.2C3028.21,4010.6 2970.35,4067.27 2987.31,4117.51C2988.95,4122.36 2985.32,4127.34 2980.26,4127.34C2977.15,4127.34 2974.25,4125.38 2973.2,4122.27C2954.14,4065.85 3011.29,4009.55 2988.9,3961.5C2983.11,3949.11 2972.43,3937.88 2969.23,3922.84C2962.83,3892.88 2989.92,3868.56 3004.99,3847.01C3027.44,3814.98 3031.11,3773.04 3014.58,3737.56C3012.84,3733.83 3014.46,3729.4 3018.19,3727.66C3021.91,3725.91 3026.36,3727.54 3028.08,3731.27C3046.86,3771.56 3042.69,3819.19 3017.19,3855.57ZM2957.58,3152.06C2932.1,3160.92 2909.11,3173.55 2889.26,3189.6C2887.88,3190.71 2886.23,3191.25 2884.58,3191.25C2882.41,3191.25 2880.25,3190.31 2878.79,3188.49C2876.2,3185.29 2876.69,3180.6 2879.89,3178.01C2901.08,3160.88 2925.57,3147.41 2952.69,3137.99C2956.55,3136.63 2960.82,3138.69 2962.17,3142.57C2963.52,3146.46 2961.47,3150.71 2957.58,3152.06ZM2933.26,3191.95L2913.22,3207.71C2911.85,3208.79 2910.23,3209.3 2908.62,3209.3C2906.41,3209.3 2904.23,3208.33 2902.76,3206.46C2900.21,3203.23 2900.77,3198.54 2904.01,3196L2924.05,3180.24C2927.28,3177.69 2931.98,3178.26 2934.52,3181.48C2937.05,3184.72 2936.5,3189.4 2933.26,3191.95ZM2664.63,3478.41L2646.34,3519.78C2645.11,3522.56 2642.38,3524.22 2639.52,3524.22C2638.51,3524.22 2637.5,3524.01 2636.51,3523.58C2632.75,3521.92 2631.05,3517.51 2632.71,3513.75L2651,3472.39C2652.68,3468.63 2657.05,3466.92 2660.83,3468.59C2664.59,3470.25 2666.29,3474.65 2664.63,3478.41ZM2595.44,3538.17C2594.92,3538.17 2594.39,3538.11 2593.86,3538C2589.84,3537.13 2587.28,3533.17 2588.15,3529.15C2594.54,3499.43 2606.73,3471.21 2624.36,3445.29C2626.67,3441.9 2631.31,3441.01 2634.71,3443.32C2638.11,3445.64 2639,3450.27 2636.68,3453.67C2620.13,3478 2608.7,3504.45 2602.71,3532.28C2601.96,3535.77 2598.87,3538.17 2595.44,3538.17ZM2536.29,3844.02L2507.58,3928.6C2503.41,3940.86 2498.69,3954.76 2500.9,3967.6C2501.39,3970.42 2502.23,3973.32 2503.12,3976.4C2504.37,3980.76 2505.67,3985.26 2506.14,3990.13C2507.95,4008.62 2497.73,4023.89 2487.84,4038.67C2483.79,4044.72 2479.97,4050.43 2476.98,4056.29C2474.36,4061.43 2473.51,4065.11 2474.31,4067.87C2475,4070.24 2478.29,4072.83 2481.03,4072.33C2485.04,4071.62 2488.94,4074.33 2489.66,4078.38C2490.36,4082.43 2487.66,4086.3 2483.6,4087C2482.5,4087.2 2481.41,4087.29 2480.33,4087.29C2470.69,4087.29 2462.29,4079.93 2460,4072.02C2457.47,4063.31 2460.91,4055.01 2463.71,4049.51C2467.09,4042.88 2471.35,4036.52 2475.46,4030.38C2484.27,4017.21 2492.6,4004.76 2491.31,3991.58C2490.97,3988.08 2489.91,3984.41 2488.8,3980.52C2487.84,3977.2 2486.85,3973.77 2486.22,3970.14C2483.36,3953.56 2488.73,3937.75 2493.46,3923.81L2522.17,3839.22C2523.5,3835.34 2527.72,3833.25 2531.62,3834.57C2535.52,3835.89 2537.6,3840.12 2536.29,3844.02ZM3670.98,3231.51C3621.29,3226.78 3547.65,3212.39 3424.53,3193.74C3376.51,3186.46 3358.14,3171.18 3319.33,3161.26C3305.6,3152.85 3284.59,3153.47 3270.21,3151.18C3244.93,3147.16 3219.82,3142.09 3194.85,3136.46C3151.53,3126.69 3105.94,3131.39 3063.63,3121.85C3042.93,3117.18 3025.69,3103.34 3006.58,3094.11C2916.05,3050.38 2805.29,3130.83 2743.14,3192.58C2676.77,3258.54 2644.75,3295.1 2589.52,3373.24C2539.12,3444.55 2503.8,3541.7 2474.37,3615.87C2435.04,3715.03 2416.67,3878.52 2401.15,3982.6C2395.04,4023.56 2390.55,4064.72 2385.51,4105.83C2380.81,4144.16 2362.44,4220.33 2396.75,4240.8C2415.25,4251.83 2625.86,4282.62 2691.87,4287C2690.92,4285.44 2690.49,4283.56 2690.89,4281.63C2715.24,4163.13 2779.51,3724.97 2803.98,3605.89C2811.19,3570.85 2818.64,3534.61 2833.82,3500.54C2880.27,3396.23 2993.86,3324.67 3085.13,3267.17C3088.63,3264.99 3093.23,3266.02 3095.41,3269.5C3097.61,3272.98 3096.56,3277.58 3093.08,3279.78C3003.51,3336.2 2892.04,3406.42 2847.43,3506.6C2832.91,3539.19 2825.62,3574.63 2818.58,3608.89C2794.22,3727.38 2729.96,4165.54 2705.48,4284.62C2705.25,4285.73 2704.73,4286.68 2704.09,4287.53C2704.31,4287.53 2704.6,4287.54 2704.81,4287.54C2706.08,4294.1 2708.23,4297.92 2711.42,4298.4C2837.51,4317.55 2954.01,4298.22 3080.11,4317.37C3107.42,4136.04 3141.96,3954.64 3171.19,3781C3179.47,3731.8 3214.09,3633.28 3261.26,3617.05C3346.84,3587.62 3431.49,3554.66 3512.7,3514.59C3550.76,3495.81 3591.17,3476.5 3625.52,3451.35C3708.66,3390.49 3792.36,3339.61 3843.68,3246.38C3786.43,3232.91 3728.86,3237.03 3670.98,3231.51Z" style="fill-rule:nonzero;"/>
        <path d="M2612.55,4445.12C2542.21,4442.19 2478.09,4440.02 2416.08,4437.93C2358.05,4435.97 2298.05,4433.94 2233.11,4431.29C2220.83,4430.79 2209.65,4425.4 2202.45,4416.49C2196.33,4408.93 2193.83,4399.71 2195.4,4390.53C2200.07,4362.84 2209.48,4334.67 2246.32,4316.41C2285.65,4296.95 2335.27,4293.09 2378.62,4305.61C2381.02,4297.2 2383.84,4289.41 2386.6,4281.79C2390.56,4270.85 2394.3,4260.51 2396.73,4248.75C2397.96,4242.7 2403.85,4238.81 2409.92,4240.05C2415.97,4241.3 2419.86,4247.21 2418.61,4253.26C2415.86,4266.61 2411.67,4278.19 2407.61,4289.4C2403.67,4300.27 2399.96,4310.55 2397.51,4322.26C2396.84,4325.45 2394.83,4328.18 2391.98,4329.76C2389.13,4331.34 2385.75,4331.6 2382.69,4330.46C2342.32,4315.53 2293.86,4317.83 2256.23,4336.44C2229.85,4349.52 2221.83,4368.26 2217.44,4394.27C2216.83,4397.83 2218.4,4400.67 2219.83,4402.43C2222.94,4406.28 2228.24,4408.72 2234.03,4408.96C2298.88,4411.6 2358.84,4413.63 2416.83,4415.59C2478.89,4417.69 2543.05,4419.86 2613.48,4422.79C2619.65,4423.05 2624.44,4428.25 2624.18,4434.42C2623.92,4440.63 2618.65,4445.4 2612.55,4445.12Z" style="fill-rule:nonzero;"/>
        <path d="M2633.84,4357.85C2627.7,4357.25 2623.21,4351.78 2623.81,4345.63C2626.46,4318.74 2630.4,4280.48 2630.66,4255.11C2630.73,4248.94 2635.58,4244.3 2641.96,4244.05C2648.13,4244.12 2653.08,4249.17 2653.01,4255.35C2652.73,4281.78 2648.8,4319.98 2646.06,4347.82C2645.46,4353.92 2640.03,4358.46 2633.84,4357.85Z" style="fill-rule:nonzero;"/>
        <path d="M3019.25,4462.12C3019.08,4462.12 3018.92,4462.12 3018.77,4462.11C2874.8,4455.96 2763.9,4453.31 2623.94,4447.6C2600.83,4446.67 2582.63,4428.09 2586.22,4406.88C2590.93,4379.13 2600.36,4350.95 2637.15,4332.76C2676.47,4313.33 2726.07,4309.46 2769.45,4321.94C2775.18,4301.74 2783.43,4285.15 2787.58,4265.08C2788.83,4259.03 2794.78,4255.15 2800.79,4256.4C2806.83,4257.65 2810.72,4263.56 2809.47,4269.61C2804.28,4294.66 2793.15,4315.36 2788.35,4338.57C2786.96,4345.27 2779.93,4349.14 2773.54,4346.78C2733.15,4331.9 2684.69,4334.2 2647.06,4352.8C2620.71,4365.82 2612.68,4384.58 2608.26,4410.62C2607.66,4414.15 2609.24,4417 2610.67,4418.77C2613.79,4422.61 2619.08,4425.04 2624.84,4425.28C2760.12,4430.78 2870.93,4433.53 3008.3,4439.3C3008.83,4420.42 3010.09,4405.49 3011.32,4390.99C3012.82,4373.25 3014.24,4356.51 3014.49,4332.75C3014.55,4326.58 3019.65,4321.86 3025.78,4321.69C3031.95,4321.75 3036.9,4326.8 3036.84,4332.98C3036.58,4357.57 3035.06,4375.52 3033.59,4392.87C3032.09,4410.59 3030.67,4427.32 3030.42,4451.06C3030.39,4454.09 3029.13,4456.98 3026.94,4459.06C3024.85,4461.03 3022.1,4462.12 3019.25,4462.12Z" style="fill-rule:nonzero;"/>
        <path d="M2670.34,4392.92C2666.19,4388.36 2666.53,4381.29 2671.09,4377.13C2681.37,4367.76 2693.97,4361.12 2707.51,4357.92C2713.5,4356.5 2719.54,4360.22 2720.95,4366.23C2722.37,4372.24 2718.66,4378.26 2712.65,4379.68C2702.79,4382 2693.62,4386.84 2686.13,4393.66C2681.59,4397.8 2674.53,4397.5 2670.34,4392.92Z" style="fill-rule:nonzero;"/>
        <path d="M3098.38,2378.51C3088.35,2402.2 3083.28,2427.94 3083.58,2453.63C3083.72,2465.12 3084.86,2476.99 3080.92,2487.79C3076.99,2498.6 3065.93,2508 3054.63,2505.51C3042.89,2502.93 3037.25,2489.91 3033.68,2478.52C3012.63,2411.41 3000.23,2341.63 2996.89,2271.43C3008.97,2306.77 3021.06,2342.12 3033.14,2377.47C3035.77,2385.15 3038.95,2393.51 3046.11,2397.43C3056.53,2403.13 3069.92,2396.07 3076.66,2386.34C3083.4,2376.6 3086.01,2364.65 3091.66,2354.25C3097.3,2343.86 3108.13,2334.41 3119.84,2336.53C3112.03,2359.44 3099.18,2380.64 3082.46,2398.23L3098.38,2378.51Z" style="fill:rgb(194,196,196);fill-rule:nonzero;"/>
        <path d="M3919.26,2578.41C3901.75,2553.01 3864.19,2520.34 3838.71,2502.79C3832.96,2498.83 3825.16,2495.09 3819.43,2499.07C3815.45,2501.83 3814.43,2507.13 3813.74,2511.9C3809.09,2543.73 3804.44,2575.56 3799.79,2607.39C3796.47,2630.13 3774.53,2679.65 3772.89,2702.57C3765.89,2800.36 3808.25,2870.8 3834.77,2965.24C3822.91,2866.74 3836.66,2765.31 3874.34,2673.42C3890.78,2633.32 3928.09,2605.59 3909.27,2566.53L3919.26,2578.41Z" style="fill:rgb(194,196,196);fill-rule:nonzero;"/>
        <path d="M4023.82,2305.52C4008.18,2287.57 3972.2,2259.98 3950.22,2250.6C3969.03,2290.75 3997.61,2354.13 4016.42,2394.27C4022.54,2407.35 4029.71,2421.48 4043,2427.3C4054.8,2432.46 4069,2429.54 4079.79,2422.53C4090.57,2415.52 4098.47,2404.94 4105.3,2394.09C4115.8,2377.43 4126.94,2358.02 4129.64,2338.73C4109.66,2333.42 4095.48,2353.21 4075.64,2354.96C4049.26,2357.29 4040.21,2324.33 4023.82,2305.52Z" style="fill:rgb(194,196,196);fill-rule:nonzero;"/>
        <path d="M2854.61,2104.97C2854.61,2104.98 2854.62,2104.98 2854.63,2104.98C2854.62,2104.98 2854.61,2104.98 2854.61,2104.97ZM2854.63,2104.98C2854.66,2105 2854.69,2105.01 2854.72,2105.03C2854.69,2105.01 2854.66,2105 2854.63,2104.98ZM2854.72,2105.03C2854.73,2105.03 2854.74,2105.04 2854.74,2105.04C2854.74,2105.04 2854.73,2105.03 2854.72,2105.03ZM2854.74,2105.04C2854.75,2105.05 2854.76,2105.05 2854.77,2105.05C2854.76,2105.05 2854.75,2105.05 2854.74,2105.04ZM2943.1,2201.06C2938.96,2201.06 2934.98,2198.75 2933.04,2194.77C2922.63,2173.39 2919.26,2145.52 2917.64,2132.12C2917.41,2130.16 2917.21,2128.53 2917.04,2127.33C2914.91,2112.54 2912.5,2097.32 2908.4,2087.84C2908.26,2087.5 2908.13,2087.15 2908.02,2086.8C2904.67,2079.52 2901.09,2072.12 2896.8,2065.86C2893.97,2061.7 2890.9,2058.38 2887.88,2056.21C2877.37,2048.79 2862.19,2048.37 2846.28,2048.56C2836.67,2048.65 2828.81,2048.91 2822.22,2051.38C2816.72,2053.43 2812.47,2057.56 2812.11,2061.19C2811.54,2067.06 2820.38,2073.59 2829.24,2076.51C2831.56,2077.24 2835.68,2077.84 2839.75,2078.37C2849.64,2079.76 2859.34,2081.12 2866.15,2085.89C2866.55,2086.15 2866.92,2086.4 2867.17,2086.59C2867.28,2086.68 2867.66,2086.97 2867.77,2087.05C2871.38,2090.03 2875.42,2095.91 2874.19,2106.96C2873.06,2117.1 2866.6,2133.84 2855.75,2139.33C2850.24,2142.12 2843.52,2139.91 2840.73,2134.4C2837.95,2128.89 2840.16,2122.17 2845.67,2119.39C2848.21,2117.43 2851.97,2108.11 2852.11,2103.57C2848.76,2102.2 2841.64,2101.21 2837.15,2100.58C2830.81,2099.74 2826.29,2099.01 2822.41,2097.79C2804.83,2092.02 2788.05,2077.82 2789.86,2059.02C2791.09,2046.58 2800.49,2035.65 2814.39,2030.44C2825.19,2026.4 2836.75,2026.3 2846.04,2026.21C2864.95,2025.96 2884.8,2026.67 2900.84,2038C2906.12,2041.78 2910.95,2046.9 2915.26,2053.27C2920.49,2060.88 2924.58,2069.33 2928.23,2077.32C2928.53,2077.97 2928.84,2078.67 2929.09,2079.37C2934.17,2091.34 2936.75,2107.38 2939.16,2124.14C2939.35,2125.46 2939.57,2127.26 2939.83,2129.44C2941.31,2141.63 2944.37,2166.98 2953.14,2184.99C2955.84,2190.54 2953.53,2197.23 2947.98,2199.93C2946.41,2200.7 2944.74,2201.06 2943.1,2201.06Z" style="fill-rule:nonzero;"/>
        <path d="M2771.98,2228.46C2767.76,2228.46 2763.72,2226.05 2761.83,2221.98C2740.85,2176.67 2735.81,2163.73 2717.03,2115.6L2713.66,2106.96C2712.12,2103.08 2710.5,2098.87 2709.28,2094.49C2707.12,2087.18 2706.43,2080.46 2707.24,2074.14C2709.12,2060.23 2720.87,2045.88 2737.3,2045.82C2747.61,2045.83 2757.91,2051.74 2764.89,2061.63L2767.48,2065.33C2771.1,2070.47 2775.2,2076.29 2778.3,2081.79L2780.21,2085.2C2782.28,2089.2 2784,2092.96 2785.74,2097.24C2785.95,2097.66 2786.12,2098.09 2786.27,2098.52C2786.49,2099.14 2786.73,2099.77 2786.99,2100.41L2787.66,2102.16C2792.51,2113.99 2790.29,2126.84 2781.87,2134.56C2775.97,2140.05 2766.77,2141.89 2758.47,2139.18C2751.32,2136.84 2746.26,2131.38 2744.96,2124.58C2743.79,2118.52 2747.76,2112.66 2753.82,2111.49C2759.09,2110.5 2764.17,2113.33 2766.19,2118.04C2766.26,2117.92 2766.83,2118 2767.01,2117.92C2768.08,2116.89 2768.11,2113.38 2766.83,2110.28L2766.16,2108.54C2765.91,2107.87 2765.66,2107.22 2765.42,2106.58C2765.35,2106.43 2765.29,2106.28 2765.23,2106.13C2763.68,2102.28 2762.17,2098.97 2760.49,2095.71L2758.85,2092.8C2756.28,2088.25 2752.52,2082.91 2749.21,2078.2L2746.58,2074.45C2743.91,2070.67 2740.26,2068.17 2737.34,2068.17C2733.5,2068.19 2729.97,2072.87 2729.4,2077.05C2729.01,2080.16 2729.44,2083.88 2730.76,2088.33C2731.74,2091.83 2733.07,2095.26 2734.46,2098.78L2737.86,2107.48C2756.43,2155.1 2761.43,2167.9 2782.11,2212.58C2784.7,2218.19 2782.27,2224.83 2776.66,2227.42C2775.14,2228.13 2773.55,2228.46 2771.98,2228.46Z" style="fill-rule:nonzero;"/>
        <path d="M2797.6,2129.34C2793.78,2129.34 2789.9,2128.59 2786.11,2127.07C2776.14,2123.07 2767.44,2113.78 2764.47,2103.95C2762.68,2098.04 2766.03,2091.81 2771.93,2090.02C2777.81,2088.25 2784.08,2091.57 2785.86,2097.48C2786.75,2100.44 2790.29,2104.66 2794.44,2106.32C2797.64,2107.61 2799.78,2106.77 2801.1,2106.02C2803.06,2103.88 2802.8,2091.55 2799.03,2085.24C2795.86,2079.95 2797.58,2073.08 2802.88,2069.91C2808.17,2066.75 2815.03,2068.47 2818.21,2073.76C2823.15,2082.02 2826.63,2097.49 2823.34,2109.91C2820.98,2118.86 2815.92,2123.32 2812.1,2125.48C2807.56,2128.05 2802.62,2129.34 2797.6,2129.34Z" style="fill-rule:nonzero;"/>
        <path d="M2739.86,2068.09C2735.08,2068.09 2730.67,2065.01 2729.18,2060.21C2725.65,2048.75 2735.05,2035.34 2741.81,2029.57C2746.16,2025.86 2758.38,2019.59 2769.03,2018.6C2774.07,2012.71 2780.61,2009.17 2789.48,2007.38C2793.75,2006.52 2799.95,2005.97 2806.39,2006.35C2799.01,1974.55 2791.83,1941.45 2786.88,1908.95C2785.92,1902.62 2784.61,1893.95 2786.71,1885.16C2789.34,1874.19 2797.09,1865.53 2806.95,1862.54C2819.91,1858.61 2833,1865.14 2840.21,1873.33C2847.03,1881.08 2850.04,1890.49 2852.47,1898.05L2897.15,2037.41C2899.03,2043.29 2895.79,2049.58 2889.92,2051.47C2884.02,2053.36 2877.74,2050.12 2875.86,2044.24L2831.18,1904.88C2829.21,1898.71 2827.17,1892.35 2823.43,1888.1C2820.63,1884.91 2816.2,1883.08 2813.43,1883.94C2810.87,1884.71 2809.08,1887.73 2808.45,1890.37C2807.44,1894.58 2808.06,1899.54 2808.98,1905.6C2814.72,1943.37 2823.66,1982.33 2832.31,2019C2833.38,2023.51 2831.54,2028.22 2827.7,2030.82C2823.86,2033.42 2818.81,2033.38 2815.01,2030.71C2812.32,2028.82 2801.4,2027.77 2793.89,2029.29C2788.14,2030.45 2786.28,2032.18 2784.29,2035.62C2781.71,2040.09 2776.42,2042.16 2771.53,2040.76C2768.08,2040.76 2758.82,2044.46 2756.31,2046.58C2753.96,2048.59 2751.3,2052.73 2750.81,2054.65C2751.97,2060.23 2748.71,2065.88 2743.16,2067.59C2742.06,2067.93 2740.95,2068.09 2739.86,2068.09Z" style="fill-rule:nonzero;"/>
        <path d="M2808.92,2091.34C2805.21,2091.34 2801.58,2089.5 2799.46,2086.12C2797.56,2083.1 2790.44,2072.03 2783.33,2060.96C2776.16,2049.8 2769,2038.65 2767.09,2035.61C2763.8,2030.39 2765.37,2023.48 2770.6,2020.2C2775.8,2016.93 2782.72,2018.48 2786,2023.71C2787.9,2026.73 2795.02,2037.8 2802.13,2048.87C2809.3,2060.03 2816.46,2071.18 2818.37,2074.22C2821.66,2079.44 2820.09,2086.35 2814.87,2089.63C2813.02,2090.79 2810.96,2091.34 2808.92,2091.34Z" style="fill-rule:nonzero;"/>
        <path d="M3425.26,1950.59C3407.11,1950.59 3388.74,1944.86 3374.84,1934.8C3347.36,1914.91 3328.07,1883.3 3320.53,1845.79C3309.04,1788.72 3308.38,1740.55 3318.58,1702.61C3320.18,1696.65 3326.28,1693.12 3332.27,1694.72C3338.23,1696.32 3341.76,1702.45 3340.16,1708.41C3331,1742.5 3331.79,1788.48 3342.44,1841.38C3348.87,1873.37 3365.03,1900.11 3387.94,1916.69C3409.4,1932.23 3445.67,1933.63 3462.05,1912.25C3465.8,1907.35 3472.81,1906.42 3477.72,1910.17C3482.61,1913.93 3483.54,1920.94 3479.79,1925.84C3466.62,1943.04 3446.08,1950.59 3425.26,1950.59Z" style="fill-rule:nonzero;"/>
        <path d="M3427.81,2071.58C3427.08,2071.58 3426.34,2071.51 3425.59,2071.36C3419.54,2070.14 3415.63,2064.25 3416.84,2058.2C3421.35,2035.81 3422.13,2000.79 3422.7,1975.21C3423.13,1955.88 3423.37,1947.14 3424.57,1942.55C3426.12,1936.58 3432.19,1933.02 3438.19,1934.56C3444.15,1936.11 3447.73,1942.18 3446.21,1948.13C3445.59,1951.04 3445.3,1964.14 3445.05,1975.71C3444.46,2002.12 3443.65,2038.29 3438.75,2062.61C3437.69,2067.92 3433.02,2071.58 3427.81,2071.58Z" style="fill-rule:nonzero;"/>
        <path d="M3533.1,1902.15C3528.47,1902.15 3524.13,1899.25 3522.54,1894.62C3520.53,1888.78 3523.63,1882.42 3529.46,1880.41C3548.55,1873.83 3560.69,1855.71 3565.3,1842.18C3567.28,1836.34 3573.63,1833.2 3579.48,1835.21C3585.32,1837.2 3588.44,1843.54 3586.46,1849.39C3579.93,1868.56 3563.44,1892.33 3536.75,1901.54C3535.54,1901.96 3534.31,1902.15 3533.1,1902.15Z" style="fill-rule:nonzero;"/>
        <path d="M3375.68,1840.77C3371.08,1840.77 3366.48,1839.25 3362.43,1836.29C3355.2,1831.04 3350.7,1821.98 3350.97,1813.22C3351.32,1801.22 3358.21,1791.67 3363.75,1783.99L3364.35,1783.17C3368.24,1777.75 3372.13,1771.56 3371.44,1766.8C3370.55,1760.69 3374.79,1755.02 3380.9,1754.14C3387,1753.22 3392.67,1757.49 3393.56,1763.59C3395.39,1776.23 3388.99,1787.17 3382.49,1796.22L3381.88,1797.07C3377.55,1803.07 3373.46,1808.74 3373.3,1813.89C3373.25,1815.67 3374.74,1817.74 3375.71,1818.32C3381.37,1816.61 3387.44,1819.63 3389.46,1825.27C3391.53,1831.08 3388.5,1837.47 3382.68,1839.55C3380.4,1840.37 3378.04,1840.77 3375.68,1840.77Z" style="fill-rule:nonzero;"/>
        <path d="M3388.3,1879.78C3382.95,1879.78 3377.61,1878.56 3372.85,1876.11C3367.36,1873.29 3365.19,1866.56 3368.01,1861.07C3370.83,1855.58 3377.58,1853.4 3383.05,1856.23C3386.23,1857.86 3390.32,1857.86 3393.5,1856.25C3399,1853.45 3405.73,1855.65 3408.53,1861.16C3411.32,1866.66 3409.12,1873.39 3403.61,1876.18C3398.88,1878.58 3393.59,1879.78 3388.3,1879.78Z" style="fill-rule:nonzero;"/>
        <path d="M3898.5,2111.65C3897.04,2113.59 3894.8,2114.62 3892.54,2114.62C3890.98,2114.62 3889.41,2114.13 3888.07,2113.12C3837.37,2074.98 3792.6,2029.84 3754.98,1978.95C3739.1,1957.46 3724.19,1933.82 3722.71,1906.56C3722.16,1896.57 3723.49,1886.7 3724.78,1877.16C3726.61,1863.67 3728.32,1850.94 3724.71,1839.2C3719.21,1821.28 3702.86,1809.67 3685.54,1797.37C3670.21,1786.48 3654.35,1775.22 3644.72,1758.59C3637.21,1745.62 3634.58,1731.21 3632.03,1717.26C3630.73,1710.11 3629.49,1703.35 3627.64,1696.78C3615.77,1654.54 3575.12,1621.83 3531,1619C3526.89,1618.74 3523.78,1615.2 3524.04,1611.09C3524.3,1606.98 3527.7,1603.82 3531.96,1604.13C3582.18,1607.36 3628.46,1644.62 3641.99,1692.75C3644.03,1699.99 3645.38,1707.41 3646.69,1714.59C3649.11,1727.86 3651.4,1740.4 3657.61,1751.12C3665.62,1764.94 3679.49,1774.79 3694.17,1785.22C3712.75,1798.42 3731.97,1812.07 3738.96,1834.82C3743.53,1849.69 3741.51,1864.67 3739.55,1879.15C3738.3,1888.42 3737.11,1897.17 3737.58,1905.75C3738.86,1929.09 3752.46,1950.47 3766.96,1970.1C3803.72,2019.83 3847.48,2063.94 3897.03,2101.21C3900.32,2103.69 3900.97,2108.36 3898.5,2111.65ZM4103.95,2134.23C4102.59,2118.25 4094.09,2104.48 4087.27,2093.41C4077.34,2077.3 4066.08,2059.04 4050.04,2045.26C4036.3,2033.46 4020.16,2026.53 4004.55,2025.32C4013.49,1987.81 4010.93,1952.42 3997,1924.34C3981.66,1893.39 3945.96,1867.18 3908.35,1869.62C3909.51,1831.84 3893.92,1794.17 3865.82,1768.55C3837.99,1743.17 3799.51,1731.08 3762.34,1735.36C3767.72,1676.55 3737.77,1614.92 3687.14,1584.16C3676.71,1577.82 3667.06,1574.57 3658.3,1574.42C3654.18,1550.27 3635.61,1527.56 3610.09,1517.23C3586.62,1507.73 3558.27,1507.36 3525.86,1516.12C3505.99,1521.5 3490.92,1529.11 3480.2,1539.23C3466.67,1526.65 3446.98,1519.61 3426.65,1520.69C3406.01,1521.79 3385.19,1530.31 3364.76,1546.01C3338.32,1566.33 3317.45,1594.74 3307.52,1623.96C3305.9,1628.73 3296.95,1698.34 3310.51,1713.37C3314.04,1717.29 3319.14,1718.93 3324.1,1717.8C3349.46,1712.01 3378.83,1679.97 3394.16,1643.09C3417.68,1660.62 3442.78,1681.33 3467.17,1701.46C3532,1754.97 3556.2,1773.37 3571.62,1769.8C3576.39,1768.7 3580.14,1765.66 3582.17,1761.23C3588.03,1748.46 3595.35,1749.35 3597.76,1749.66C3609.95,1751.17 3626.27,1767.28 3629.86,1786.57C3631.47,1795.28 3629.36,1804.01 3624.21,1809.94C3614.08,1821.59 3595.39,1826.54 3576.55,1822.53C3573.48,1821.88 3570.29,1822.53 3567.74,1824.35C3565.2,1826.16 3563.52,1828.95 3563.13,1832.05C3562.16,1839.74 3561.24,1847.44 3560.32,1855.15C3557.6,1877.85 3554.79,1901.32 3550.67,1923.9C3550.15,1926.72 3549.75,1929.55 3549.45,1932.38C3544.72,1976.83 3566.54,2027.58 3605.02,2061.66C3623.1,2077.67 3644.44,2089.86 3665.08,2101.66C3696.83,2119.79 3726.81,2136.92 3743.07,2165.95C3746.4,2171.88 3749.11,2178.28 3751.98,2185.06C3757.09,2197.13 3762.38,2209.62 3771.65,2220.34C3782.73,2233.16 3794.2,2237.34 3805.12,2237.34C3817.03,2237.34 3828.31,2232.37 3837.77,2228.21C3844.73,2225.14 3851.31,2222.24 3857.79,2220.9C3868.95,2218.59 3880.11,2219.03 3891.96,2219.5C3910.46,2220.21 3929.63,2220.97 3950.84,2211.6C3958.16,2208.36 3966.95,2202.05 3971.12,2193.58C3993.29,2200.37 4018.85,2206.42 4044.1,2201.86C4075.16,2196.23 4106.88,2168.77 4103.95,2134.23Z" style="fill-rule:nonzero;"/>
        <path d="M3877.67,3267.14C3591.66,3237.57 3564.88,3238.79 3493.3,3241.99C3485.88,3242.33 3477.99,3242.69 3469.28,3243.03C3462.9,3243.18 3457.92,3238.47 3457.67,3232.31C3457.43,3226.14 3462.23,3220.94 3468.4,3220.7C3477.05,3220.35 3484.91,3220 3492.3,3219.67C3563.76,3216.45 3591.32,3215.21 3864.54,3243.31C3817.32,3023.88 3825.77,2728.26 3883.6,2614.73C3886.41,2609.23 3893.14,2607.04 3898.63,2609.85C3904.13,2612.65 3906.32,2619.38 3903.52,2624.88C3846.27,2737.26 3839.69,3036.89 3889.71,3253.51C3890.52,3257.02 3889.59,3260.71 3887.19,3263.42C3884.75,3266.19 3881.16,3267.5 3877.67,3267.14Z" style="fill-rule:nonzero;"/>
        <path d="M3174.46,2231.61C3169.12,2228.51 3167.3,2221.67 3170.4,2216.33C3192.69,2177.86 3210.22,2152.68 3227.26,2134.69L3229.58,2132.24C3254.25,2106.16 3312.04,2045.1 3387.22,2060.68C3389.26,2061.11 3391.14,2062.08 3392.64,2063.51C3404.81,2075.04 3417.55,2093.75 3433.97,2124.18C3448.51,2151.15 3473.13,2169.13 3503.27,2174.8C3536.26,2181 3570.46,2171.59 3597.08,2148.97C3611.59,2136.64 3634.45,2112.96 3652.83,2093.94C3665.8,2080.51 3676.99,2068.91 3683.37,2063.19C3687.96,2059.06 3695.04,2059.46 3699.15,2064.05C3703.27,2068.64 3702.89,2075.71 3698.3,2079.83C3692.52,2085.01 3681.58,2096.34 3668.9,2109.46C3649.22,2129.85 3626.9,2152.96 3611.56,2166C3579.78,2193.02 3538.8,2204.22 3499.14,2196.76C3462.23,2189.82 3432.1,2167.81 3414.29,2134.79C3405.36,2118.22 3392.26,2095.19 3379.52,2081.97C3317.96,2071.26 3269.39,2122.69 3245.81,2147.6C3243.29,2150.73 3226.02,2164.91 3189.73,2227.54C3187.66,2231.12 3179.82,2234.71 3174.46,2231.61Z" style="fill-rule:nonzero;"/>
        <path d="M2876.13,2574.27C2871.61,2574.27 2867.36,2571.51 2865.67,2567.03C2845.39,2513.2 2830.32,2466.09 2815.75,2420.53C2801.23,2375.15 2786.22,2328.23 2766.1,2274.85C2764.8,2271.41 2765.28,2267.55 2767.38,2264.52C2769.48,2261.5 2772.97,2259.48 2776.61,2259.73L2776.88,2259.73C2800.4,2259.73 2827.41,2245.02 2851.25,2232.03C2854.37,2230.33 2857.42,2228.67 2860.39,2227.08C2867.78,2223.13 2874.85,2218.66 2882.34,2213.93C2892.65,2207.43 2903.31,2200.69 2914.91,2195.38C2941.72,2183.17 2963.94,2181.71 2982.88,2190.95C2985.59,2192.27 2987.65,2194.62 2988.59,2197.49C3012,2268.41 3018.05,2300.62 3050.17,2371.08C3054.77,2381.17 3068.81,2383.08 3075.8,2374.18C3095.45,2349.06 3114.65,2316.06 3132.48,2284.13C3135.49,2278.74 3142.31,2276.82 3147.68,2279.82C3153.07,2282.83 3155,2289.64 3151.99,2295.02C3133.73,2327.74 3114,2361.64 3093.4,2387.95C3076.17,2409.96 3041.47,2405.81 3029.83,2380.36C3005.9,2327.85 2996.05,2295.99 2983.59,2255.65C2979.38,2242.02 2974.65,2226.73 2968.96,2209.33C2957.02,2205.23 2942.64,2207.31 2924.2,2215.72C2913.97,2220.39 2904.41,2226.44 2894.27,2232.83C2886.79,2237.56 2879.04,2242.45 2870.93,2246.79C2868.02,2248.35 2865.02,2249.98 2861.95,2251.66C2841.35,2262.88 2816.61,2276.35 2792.12,2280.68C2809.93,2328.95 2823.69,2371.98 2837.04,2413.72C2851.52,2459.01 2866.5,2505.85 2886.58,2559.15C2888.76,2564.92 2885.84,2571.37 2880.07,2573.55C2878.77,2574.03 2877.44,2574.27 2876.13,2574.27Z" style="fill-rule:nonzero;"/>
        <path d="M4086.94,2373.09C4076.45,2373.09 4066.53,2369.16 4058.9,2361.95L3865.96,2178.8C3861.49,2174.55 3861.31,2167.47 3865.55,2163C3869.8,2158.52 3876.87,2158.34 3881.36,2162.59L4074.26,2345.72C4077.83,2349.08 4082.4,2350.83 4087.5,2350.73C4092.45,2350.59 4097.03,2348.55 4100.4,2344.99C4120.36,2323.92 4135.43,2308.47 4147.56,2296.06C4159.92,2283.39 4169.69,2273.39 4179.47,2262.74C4183.64,2258.19 4190.71,2257.9 4195.25,2262.07C4199.8,2266.25 4200.1,2273.32 4195.92,2277.86C4185.91,2288.76 4176.05,2298.87 4163.55,2311.67C4151.49,2324.03 4136.47,2339.42 4116.64,2360.34C4109.18,2368.24 4099.05,2372.77 4088.11,2373.08C4087.73,2373.09 4087.34,2373.09 4086.94,2373.09Z" style="fill-rule:nonzero;"/>
        <path d="M4087.94,2714.06C4082.05,2714.06 4076.14,2712.38 4071.01,2708.88C3960.75,2633.87 3936.99,2615.51 3839.84,2530.21C3835.19,2526.14 3834.74,2519.08 3838.81,2514.44C3842.87,2509.81 3849.93,2509.34 3854.58,2513.41C3950.8,2597.89 3974.35,2616.09 4083.58,2690.41C4086.91,2692.68 4091.53,2692.03 4094.07,2688.93C4120.56,2656.85 4144.7,2628.42 4164.82,2604.84C4168.83,2600.15 4175.89,2599.58 4180.58,2603.59C4185.27,2607.59 4185.83,2614.65 4181.83,2619.34C4161.77,2642.86 4137.7,2671.21 4111.33,2703.13C4105.46,2710.28 4096.74,2714.06 4087.94,2714.06Z" style="fill-rule:nonzero;"/>
        <path d="M4211.28,2578.74C4208.72,2578.74 4206.14,2577.87 4204.04,2576.07C4199.34,2572.06 4198.78,2565.01 4202.79,2560.31C4276.31,2474.16 4338.39,2399.36 4409.53,2290.56C4404.35,2279.34 4394.09,2269.33 4380.13,2261.99C4372.63,2258.03 4364.78,2254.76 4356.46,2251.3C4347.42,2247.54 4338.06,2243.64 4329.07,2238.75C4312.73,2229.76 4289.78,2214.38 4272.99,2192C4271.93,2190.6 4270.91,2189.19 4269.92,2187.76C4255.23,2206.74 4242.66,2222.68 4231.74,2236.2C4227.86,2241 4220.82,2241.74 4216.03,2237.87C4211.22,2233.99 4210.48,2226.96 4214.35,2222.16C4227.6,2205.75 4243.32,2185.73 4262.39,2160.95C4264.76,2157.86 4268.56,2156.22 4272.46,2156.65C4276.33,2157.08 4279.71,2159.49 4281.36,2163.03C4283.81,2168.26 4287,2173.48 4290.84,2178.54C4302.1,2193.57 4319.48,2207.97 4339.8,2219.14C4347.73,2223.46 4356.14,2226.96 4365.05,2230.67C4373.46,2234.17 4382.16,2237.79 4390.55,2242.21C4411.62,2253.29 4426.57,2269.7 4432.65,2288.41C4433.69,2291.62 4433.22,2295.12 4431.39,2297.95C4358.21,2410.49 4294.92,2486.78 4219.79,2574.82C4217.58,2577.41 4214.44,2578.74 4211.28,2578.74Z" style="fill-rule:nonzero;"/>
        <path d="M4073.32,2448.53C4072.84,2448.53 4072.36,2448.51 4071.88,2448.44C4065.76,2447.65 4061.43,2442.05 4062.22,2435.93L4070.52,2371.34C4071.31,2365.22 4076.87,2360.88 4083.03,2361.67C4089.15,2362.46 4093.48,2368.06 4092.68,2374.18L4084.38,2438.79C4083.66,2444.42 4078.85,2448.53 4073.32,2448.53Z" style="fill-rule:nonzero;"/>
        <path d="M2896.7,2270.2C2893.72,2270.2 2890.75,2269.02 2888.55,2266.68C2884.33,2262.18 2884.54,2255.11 2889.04,2250.88C2900.07,2240.53 2914.38,2233.46 2929.35,2230.99C2935.42,2229.99 2941.19,2234.1 2942.2,2240.19C2943.21,2246.28 2939.09,2252.03 2933,2253.04C2922.35,2254.8 2912.18,2259.82 2904.35,2267.17C2902.19,2269.2 2899.44,2270.2 2896.7,2270.2Z" style="fill-rule:nonzero;"/>
        <path d="M3055.88,2477.5C3054.71,2449.56 3048.81,2422.24 3038.35,2396.27C3036.04,2390.55 3038.82,2384.04 3044.54,2381.73C3050.28,2379.41 3056.77,2382.2 3059.09,2387.92C3070.5,2416.26 3076.94,2446.08 3078.21,2476.56C3078.47,2482.73 3073.68,2487.94 3067.51,2488.19C3061.4,2488.47 3056.14,2483.7 3055.88,2477.5Z" style="fill-rule:nonzero;"/>
        <path d="M4406.87,2322.3C4405,2322.3 4403.1,2321.83 4401.36,2320.84C4395.99,2317.8 4394.1,2310.98 4397.15,2305.61C4399.7,2301.12 4402.14,2296.55 4404.57,2291.99C4413.76,2274.78 4423.26,2256.99 4438.67,2242.93C4448.92,2233.51 4461.07,2226.94 4473.76,2223.97C4484.36,2221.56 4493.79,2222.87 4502.92,2224.13C4505.14,2224.44 4507.38,2224.75 4509.65,2225C4510.27,2225.04 4511.36,2225.16 4512.45,2225.29C4538.07,2227.55 4564,2226.15 4589.21,2221.1C4595.53,2219.83 4602.87,2218.19 4609.43,2215.64C4611.57,2214.79 4612.44,2212.8 4611.99,2209.73C4611.43,2206.07 4608.78,2201.97 4604.23,2201.62C4601.2,2201.35 4598.16,2201.37 4595.55,2201.41C4585,2201.9 4574.14,2202.37 4563.28,2202.84C4552.45,2203.31 4541.61,2203.78 4530.78,2204.28C4526.81,2204.43 4522.92,2204.61 4519.04,2204.79C4514.97,2204.98 4510.91,2205.17 4506.84,2205.33C4500.42,2205.47 4495.47,2200.76 4495.23,2194.59C4494.99,2188.43 4499.8,2183.23 4505.97,2182.99C4509.99,2182.83 4514,2182.65 4518.01,2182.46C4521.94,2182.28 4525.88,2182.1 4529.83,2181.94C4540.6,2181.45 4551.46,2180.98 4562.32,2180.51C4573.16,2180.04 4584,2179.58 4594.83,2179.08C4598.33,2179.01 4602.13,2179 4606.08,2179.35C4620.29,2180.44 4631.86,2191.58 4634.09,2206.41C4636.11,2219.91 4629.64,2231.7 4617.58,2236.45C4609.39,2239.63 4600.87,2241.56 4593.61,2243.02C4566.3,2248.49 4538.22,2250 4510.16,2247.52C4509.07,2247.4 4508.29,2247.3 4507.57,2247.25C4504.71,2246.94 4502.28,2246.6 4499.87,2246.27C4492.05,2245.19 4485.32,2244.26 4478.78,2245.75C4469.9,2247.83 4461.22,2252.56 4453.76,2259.41C4441.16,2270.91 4432.97,2286.26 4424.29,2302.52C4421.77,2307.25 4419.23,2311.99 4416.59,2316.64C4414.53,2320.27 4410.75,2322.3 4406.87,2322.3Z" style="fill-rule:nonzero;"/>
        <path d="M4617.3,2201.63C4612.47,2201.63 4608.01,2198.47 4606.59,2193.59C4604.86,2187.67 4608.25,2181.46 4614.17,2179.73C4617.49,2178.76 4625.2,2173.21 4627.88,2167.04C4629.13,2164.14 4628.46,2162.82 4628.17,2162.25C4625.61,2157.18 4620.52,2154.15 4611.14,2152.11C4603.15,2150.36 4593.32,2150.14 4583.48,2151.46C4570.24,2153.23 4557.24,2154.67 4544.24,2156.1C4531.41,2157.52 4518.57,2158.94 4505.5,2160.69C4499.4,2161.48 4493.76,2157.21 4492.94,2151.1C4492.12,2144.98 4496.41,2139.36 4502.53,2138.54C4515.78,2136.77 4528.78,2135.33 4541.79,2133.89C4554.62,2132.47 4567.44,2131.05 4580.51,2129.3C4592.87,2127.65 4605.42,2127.99 4615.89,2130.27C4626.11,2132.49 4640.55,2137.18 4648.12,2152.18C4651.84,2159.54 4651.93,2167.75 4648.38,2175.93C4643.07,2188.17 4630.01,2198.38 4620.45,2201.18C4619.4,2201.49 4618.34,2201.63 4617.3,2201.63Z" style="fill-rule:nonzero;"/>
        <path d="M4625.95,2154.6C4620.24,2154.6 4615.37,2150.25 4614.83,2144.45C4614.27,2138.3 4618.79,2132.86 4624.94,2132.29C4626.33,2132.17 4627.39,2130.8 4628.09,2128.25C4629.64,2122.64 4627.66,2116.92 4626.41,2116.02C4621.39,2113.82 4611.72,2112.75 4600.01,2113.23L4509.7,2116.63C4503.69,2116.84 4498.34,2112.06 4498.11,2105.89C4497.88,2099.72 4502.68,2094.53 4508.85,2094.3L4599.17,2090.89C4614.85,2090.29 4627.05,2091.89 4635.54,2095.63C4648.16,2101.18 4652.61,2117.27 4650.5,2130.29C4648.24,2144.13 4639.23,2153.42 4626.99,2154.55C4626.64,2154.58 4626.29,2154.6 4625.95,2154.6Z" style="fill-rule:nonzero;"/>
        <path d="M4621.45,2111.58C4618.53,2111.58 4615.61,2110.45 4613.42,2108.18C4609.13,2103.75 4609.24,2096.67 4613.68,2092.38C4615.7,2090.42 4616.39,2088.45 4615.97,2085.76C4615.07,2079.89 4608.98,2072.42 4602.4,2069.13C4594.63,2065.69 4546.19,2065.13 4533.04,2067.01C4526.91,2067.86 4521.27,2063.64 4520.39,2057.53C4519.52,2051.42 4523.77,2045.76 4529.88,2044.89C4539.46,2043.52 4597.81,2041.83 4612.41,2049.14C4623.13,2054.52 4635.74,2067.21 4638.06,2082.38C4639.57,2092.21 4636.43,2101.46 4629.22,2108.44C4627.05,2110.54 4624.25,2111.58 4621.45,2111.58Z" style="fill-rule:nonzero;"/>
        <path d="M4386.99,2197.17C4383.72,2197.17 4380.48,2195.75 4378.28,2193C4374.41,2188.2 4375.17,2181.16 4379.97,2177.29C4392.5,2167.2 4399.79,2150.96 4407.51,2133.78C4408.91,2130.67 4410.3,2127.58 4411.72,2124.52C4420.7,2105.2 4435.81,2078.7 4463.34,2071.59C4470.95,2069.61 4478.43,2069.43 4485.66,2069.27C4489.89,2069.16 4493.9,2069.07 4497.66,2068.62C4500.95,2068.21 4511.89,2066.35 4514.32,2059.21C4516.01,2054.33 4513.7,2047 4508.85,2041.71C4504.12,2036.53 4497.02,2032.66 4487.74,2030.17C4458.47,2022.3 4425.71,2031.21 4397.73,2054.6C4373.95,2074.53 4355.74,2102.17 4338.13,2128.91L4333.41,2136.05C4332.21,2137.84 4326.08,2145.78 4312.37,2163.47C4303.62,2174.77 4292.72,2188.84 4291.45,2190.67C4287.95,2195.71 4281,2197.03 4275.94,2193.58C4270.87,2190.12 4269.5,2183.28 4272.91,2178.18C4274.11,2176.38 4280.47,2168.15 4294.71,2149.78C4303.14,2138.89 4313.64,2125.34 4314.85,2123.6L4319.46,2116.61C4337.96,2088.53 4357.08,2059.5 4383.39,2037.46C4417.04,2009.32 4457.18,1998.79 4493.52,2008.59C4506.98,2012.18 4517.69,2018.25 4525.34,2026.63C4535.88,2038.13 4539.86,2053.77 4535.45,2066.47C4530.94,2079.75 4518.14,2088.64 4500.36,2090.8C4495.52,2091.39 4490.77,2091.5 4486.18,2091.61C4479.96,2091.75 4474.07,2091.89 4468.96,2093.22C4454.96,2096.84 4443.22,2109.77 4431.99,2133.94C4430.61,2136.91 4429.25,2139.92 4427.9,2142.94C4419.44,2161.77 4410.69,2181.24 4393.99,2194.69C4391.93,2196.36 4389.45,2197.17 4386.99,2197.17Z" style="fill-rule:nonzero;"/>
        <path d="M3873.42,4460.35L3873.22,4460.35C3867.05,4460.24 3862.13,4455.15 3862.24,4448.98L3880.16,3423.87L3427.61,3420.35C3421.44,3420.3 3416.47,3415.26 3416.52,3409.09C3416.57,3402.95 3421.56,3398 3427.7,3398C3485.91,3398.45 3834.03,3401.16 3891.62,3401.61C3897.84,3401.66 3902.82,3406.77 3902.71,3412.98L3884.59,4449.37C3884.48,4455.47 3879.5,4460.35 3873.42,4460.35Z" style="fill-rule:nonzero;"/>
        <path d="M3882.35,3414.66C3879.31,3409.28 3881.22,3402.46 3886.6,3399.44C3912.39,3384.92 3947.19,3358.96 3984.04,3331.49C4006.96,3314.4 4030.38,3296.93 4052.14,3281.91C3964.87,3282.92 3835.87,3275.9 3737.79,3270.56C3712.86,3269.2 3689.65,3267.94 3669.27,3266.92C3663.1,3266.61 3658.36,3261.36 3658.67,3255.2C3658.97,3249.03 3664.28,3244.25 3670.39,3244.6C3690.8,3245.62 3714.03,3246.88 3739,3248.24C3853.13,3254.45 4009.42,3262.96 4091.12,3258.35C4096.43,3258.07 4100.93,3261.31 4102.44,3266.23C4103.95,3271.16 4101.89,3276.47 4097.47,3279.1C4068.59,3296.31 4032.4,3323.31 3997.4,3349.41C3959.96,3377.32 3924.6,3403.69 3897.57,3418.91C3892.09,3421.99 3885.33,3419.96 3882.35,3414.66Z" style="fill-rule:nonzero;"/>
        <path d="M4094.46,4217.56C4088.29,4217.56 4083.28,4212.56 4083.28,4206.38L4083.28,3282.33C4083.28,3276.16 4088.29,3271.16 4094.46,3271.16C4100.63,3271.16 4105.63,3276.16 4105.63,3282.33L4105.63,4206.38C4105.63,4212.56 4100.63,4217.56 4094.46,4217.56Z" style="fill-rule:nonzero;"/>
        <path d="M3869.79,4467.59C3867,4467.59 3864.21,4466.56 3862.04,4464.47C3857.6,4460.19 3857.46,4453.11 3861.74,4448.67C3878.56,4431.2 3892.9,4416.4 3905.73,4403.16C3964.78,4342.24 3991.73,4314.44 4082.4,4209.93C4086.43,4205.27 4093.49,4204.76 4098.16,4208.81C4102.82,4212.85 4103.32,4219.92 4099.28,4224.58C4008.21,4329.55 3981.12,4357.5 3921.78,4418.72C3908.97,4431.94 3894.64,4446.72 3877.84,4464.17C3875.65,4466.45 3872.72,4467.59 3869.79,4467.59Z" style="fill-rule:nonzero;"/>
        <path d="M3862.55,4471.22L3234.43,4471.22C3228.26,4471.22 3223.25,4466.21 3223.25,4460.04C3223.25,4453.87 3228.26,4448.87 3234.43,4448.87L3862.55,4448.87C3868.72,4448.87 3873.73,4453.87 3873.73,4460.04C3873.73,4466.21 3868.72,4471.22 3862.55,4471.22Z" style="fill-rule:nonzero;"/>
        <path d="M2553.9,2350.75C2561.02,2375.05 2541.94,2400.57 2517.14,2412.25C2492.35,2423.93 2463.27,2425.08 2435.27,2425.97L1594.08,2514.1C1514.04,2519.08 1433.96,2523.75 1353.84,2527.37C1326.58,2528.6 1297.81,2527.02 1270.78,2530.58C1227.92,2536.25 1193.26,2546.04 1150.86,2527.65C1115.4,2512.27 1086.19,2483.02 1070.86,2447.54C1088.1,2465.49 1105.83,2483.46 1127.36,2495.93C1169.17,2520.16 1211.19,2504.6 1255.24,2497.42C1296.31,2490.73 1337.49,2484.74 1378.7,2478.98C1479.29,2464.94 1580.1,2452.45 1680.98,2440.74C1796.75,2427.32 1912.71,2414.21 2028.93,2405.38C2146.97,2396.42 2322.8,2401.45 2440.9,2393.33C2469.19,2391.39 2498.54,2389.17 2523.2,2376.58C2547.85,2363.99 2566.35,2337.84 2558.77,2313.32C2559.54,2340.49 2553.37,2367.79 2540.87,2392.54" style="fill:rgb(194,196,196);fill-rule:nonzero;"/>
        <path d="M2558,2104.92L2557.89,2104.92C2551.72,2104.86 2546.76,2099.81 2546.82,2093.64L2556.44,1056.91C2556.67,1028.23 2531.18,1003.49 2497.13,999.371L1319.16,856.421C1313.04,855.675 1308.67,850.105 1309.41,843.979C1310.15,837.846 1315.76,833.506 1321.85,834.23L2499.82,977.181C2545.17,982.67 2579.12,1017.03 2578.79,1057.11L2569.17,2093.85C2569.11,2099.98 2564.12,2104.92 2558,2104.92Z" style="fill-rule:nonzero;"/>
        <path d="M1172.93,2514.22C1156.64,2514.22 1140.95,2510.49 1126.96,2503.23C1126.81,2503.16 1126.65,2503.09 1126.49,2503.02C1126.07,2502.83 1125.66,2502.61 1125.27,2502.37C1097.58,2487.5 1081.26,2461.74 1081.56,2433.34C1082.31,2362.48 1096.73,1004.54 1097.86,898.092C1098.15,870.069 1114.67,844.783 1142.1,830.315C1142.5,830.068 1142.93,829.843 1143.38,829.646C1143.55,829.57 1143.72,829.501 1143.89,829.436C1161.59,820.574 1181.64,817.198 1201.94,819.675L1250.96,825.663C1257.09,826.409 1261.45,831.981 1260.7,838.107C1259.95,844.234 1254.4,848.636 1248.25,847.847L1199.23,841.858C1159.27,837.004 1120.59,862.333 1120.21,898.328C1119.2,993.686 1104.69,2360.2 1103.91,2433.58C1103.7,2453.41 1115.52,2471.66 1135.58,2482.54C1135.88,2482.67 1136.17,2482.81 1136.46,2482.96C1149.89,2490.14 1165.55,2493.08 1181.69,2491.42L1933.54,2412.39C1939.67,2411.74 1945.18,2416.19 1945.83,2422.33C1946.47,2428.47 1942.02,2433.97 1935.88,2434.62L1184,2513.65C1180.29,2514.03 1176.6,2514.22 1172.93,2514.22Z" style="fill-rule:nonzero;"/>
        <path d="M2357.2,1241.16C2356.87,1241.16 2356.54,1241.15 2356.21,1241.12L1226.38,1142.15C1220.23,1141.62 1215.68,1136.2 1216.22,1130.05C1216.77,1123.9 1222.23,1119.38 1228.33,1119.89L2358.16,1218.85C2364.31,1219.39 2368.85,1224.81 2368.31,1230.96C2367.81,1236.78 2362.92,1241.16 2357.2,1241.16Z" style="fill-rule:nonzero;"/>
        <path d="M1827.99,1028.71C1827.59,1028.71 1827.19,1028.69 1826.79,1028.65L1360.52,978.494C1354.38,977.835 1349.94,972.324 1350.61,966.188C1351.27,960.047 1356.81,955.627 1362.91,956.274L1829.17,1006.43C1835.31,1007.09 1839.75,1012.6 1839.09,1018.74C1838.47,1024.46 1833.63,1028.71 1827.99,1028.71Z" style="fill-rule:nonzero;"/>
        <path d="M1636.44,1065.69C1636.21,1065.69 1635.98,1065.68 1635.74,1065.67L1534.93,1059.51C1528.78,1059.14 1524.09,1053.84 1524.46,1047.68C1524.84,1041.53 1530.04,1036.84 1536.3,1037.21L1637.11,1043.36C1643.27,1043.73 1647.96,1049.03 1647.58,1055.19C1647.22,1061.12 1642.3,1065.69 1636.44,1065.69Z" style="fill-rule:nonzero;"/>
        <path d="M1041.17,993.288C1033.16,1166.4 1039.46,937.025 1026.5,1427.99C1019.15,1706.45 1011.79,1984.93 1011.15,2263.47C1011.03,2316.09 1011.52,2370.36 1035.49,2418.83C1059.47,2467.3 1113.14,2508.97 1174.58,2507.82C1145.1,2508.34 1119.38,2488.33 1107.85,2465.07C1096.33,2441.82 1096.02,2415.79 1095.92,2390.54C1094.32,2000.92 1098.45,1611.14 1108.32,1221.33C1109.46,1176.03 1102.2,1132.91 1100.42,1087.61C1098.52,1039.08 1102.18,990.526 1106.93,942.191C1109.36,917.371 1112.24,892.056 1124.08,869.312C1135.91,846.567 1158.45,826.457 1187.04,821.892C1138.91,823.879 1092.5,846.05 1065.26,880.064C1035.22,917.569 1043.12,951.11 1041.17,993.288Z" style="fill-rule:nonzero;"/>
        <path d="M2404.02,1096.15C2402.17,1118.96 2416.8,1138.51 2436.7,1139.81C2456.59,1141.11 2474.22,1123.66 2476.07,1100.84C2477.92,1078.02 2463.29,1058.47 2443.39,1057.18C2423.5,1055.88 2405.87,1073.33 2404.02,1096.15Z" style="fill-rule:nonzero;"/>
        <path d="M2404.02,1096.15L2404.1,1096.15L2404.02,1096.15ZM2415.16,1097.05C2414.43,1106.04 2417.05,1114.7 2422.33,1120.82C2437.1,1137.89 2462.86,1125.55 2464.93,1099.94C2466.17,1084.64 2457.19,1069.28 2442.66,1068.33C2442.21,1068.3 2416.44,1081.31 2415.16,1097.05ZM2435.97,1150.96C2409.45,1149.24 2390.56,1123.89 2392.88,1095.25C2395.22,1066.42 2418.27,1044.43 2444.12,1046.02C2470.69,1047.76 2489.52,1073.16 2487.2,1101.74C2484.96,1129.53 2461.95,1152.68 2435.97,1150.96Z" style="fill-rule:nonzero;"/>
        <path d="M2262.62,1079.86C2260.77,1102.68 2275.4,1122.23 2295.29,1123.53C2315.19,1124.82 2332.81,1107.38 2334.66,1084.56C2336.51,1061.74 2321.88,1042.19 2301.99,1040.9C2282.09,1039.6 2264.47,1057.05 2262.62,1079.86Z" style="fill-rule:nonzero;"/>
        <path d="M2273.75,1080.77C2273.03,1089.76 2275.64,1098.41 2280.92,1104.53C2283.79,1107.85 2288.73,1111.9 2296.02,1112.38C2310.09,1113.25 2322.17,1100.39 2323.53,1083.66C2324.25,1074.67 2321.64,1066 2316.35,1059.89C2313.49,1056.57 2308.55,1052.52 2301.26,1052.05C2287.33,1051.05 2275.11,1064.04 2273.75,1080.77ZM2297.36,1134.77C2296.43,1134.77 2295.5,1134.74 2294.57,1134.68C2282.86,1133.92 2272,1128.4 2264,1119.14C2254.84,1108.52 2250.27,1093.88 2251.48,1078.96C2253.83,1050.13 2276.95,1028.05 2302.72,1029.75C2329.22,1031.47 2348.12,1056.8 2345.8,1085.46C2343.56,1113.25 2322.11,1134.77 2297.36,1134.77Z" style="fill-rule:nonzero;"/>
        <path d="M2125.74,1060.34C2123.89,1083.16 2138.52,1102.71 2158.41,1104C2178.31,1105.3 2195.94,1087.85 2197.78,1065.04C2199.63,1042.22 2185,1022.67 2165.11,1021.37C2145.21,1020.08 2127.59,1037.52 2125.74,1060.34Z" style="fill-rule:nonzero;"/>
        <path d="M2136.88,1061.24C2136.15,1070.23 2138.76,1078.9 2144.04,1085.02C2146.91,1088.33 2151.85,1092.38 2159.14,1092.85C2172.86,1093.92 2185.29,1080.87 2186.64,1064.13C2187.37,1055.15 2184.76,1046.48 2179.48,1040.36C2176.61,1037.05 2171.67,1033 2164.38,1032.53C2150.77,1031.61 2138.23,1044.51 2136.88,1061.24ZM2160.47,1115.25C2159.55,1115.25 2158.62,1115.22 2157.69,1115.16C2145.98,1114.39 2135.13,1108.88 2127.14,1099.63C2117.96,1089.01 2113.39,1074.36 2114.6,1059.44C2116.94,1030.62 2140.08,1008.64 2165.83,1010.22C2177.54,1010.98 2188.4,1016.5 2196.39,1025.75C2205.56,1036.37 2210.13,1051.02 2208.92,1065.94C2206.67,1093.73 2185.22,1115.25 2160.47,1115.25Z" style="fill-rule:nonzero;"/>
        <path d="M2047.16,2425.29C2041.39,2425.29 2036.5,2420.85 2036.03,2415C2035.54,2408.85 2040.13,2403.47 2046.28,2402.98C2107.9,2398.08 2185.52,2394.24 2260.59,2390.54C2335.54,2386.84 2413.03,2383.01 2474.34,2378.13C2491.21,2376.79 2508.64,2375.41 2523.77,2369.57C2536.03,2364.84 2541.63,2343.66 2543.71,2335.07L2545.39,2176.7C2545.44,2170.56 2550.43,2165.61 2556.56,2165.61L2556.65,2165.61C2562.82,2165.66 2567.79,2170.71 2567.74,2176.88L2566.04,2336.57C2566.04,2337.4 2565.93,2338.23 2565.74,2339.04C2561.42,2357.15 2553.2,2382.17 2531.82,2390.42C2513.65,2397.43 2493.71,2399.01 2476.12,2400.41C2414.47,2405.32 2336.8,2409.15 2261.7,2412.86C2186.79,2416.56 2109.33,2420.38 2048.06,2425.26C2047.75,2425.28 2047.45,2425.29 2047.16,2425.29Z" style="fill-rule:nonzero;"/>
        <path d="M914.13,1056.7C913.919,1056.7 913.701,1056.69 913.483,1056.68C907.32,1056.32 902.613,1051.04 902.97,1044.88C912.115,886.108 1027.45,737.374 1189.95,674.768C1195.67,672.552 1202.17,675.415 1204.39,681.181C1206.61,686.939 1203.74,693.407 1197.98,695.627C1043.53,755.13 933.935,896 925.277,1046.17C924.935,1052.11 920.009,1056.7 914.13,1056.7Z" style="fill-rule:nonzero;"/>
        <path d="M854.834,857.64C853.401,857.64 851.946,857.362 850.542,856.773C844.845,854.401 842.153,847.857 844.525,842.16C870.135,780.726 911.744,724.478 964.841,679.508C969.57,675.517 976.606,676.106 980.593,680.813C984.58,685.521 983.998,692.574 979.291,696.562C928.878,739.258 889.408,792.577 865.159,850.76C863.369,855.053 859.214,857.64 854.834,857.64Z" style="fill-rule:nonzero;"/>
        <path d="M2110.78,934.833C2107.92,934.833 2105.06,933.741 2102.88,931.559C2098.51,927.197 2098.51,920.118 2102.88,915.757L2240.77,777.862C2242.87,775.768 2245.71,774.589 2248.67,774.589L2509.39,774.589C2515.56,774.589 2520.57,779.591 2520.57,785.764C2520.57,791.938 2515.56,796.939 2509.39,796.939L2253.3,796.939L2118.68,931.559C2116.5,933.741 2113.64,934.833 2110.78,934.833Z" style="fill-rule:nonzero;"/>
        <path d="M2658.3,638.619L2611.82,586.035C2607.73,581.411 2608.17,574.351 2612.79,570.262C2617.42,566.173 2624.48,566.612 2628.57,571.236L2675.05,623.813C2679.14,628.437 2678.71,635.501 2674.08,639.587C2669.44,643.696 2662.38,643.22 2658.3,638.619Z" style="fill-rule:nonzero;"/>
        <path d="M2657.18,638.579C2654.17,633.188 2656.11,626.382 2661.5,623.377L2717.4,592.212C2722.79,589.203 2729.6,591.139 2732.61,596.529C2735.61,601.921 2733.68,608.728 2728.29,611.732L2672.38,642.896C2666.97,645.91 2660.19,643.963 2657.18,638.579Z" style="fill-rule:nonzero;"/>
        <path d="M2725.28,608.814C2719.14,608.163 2714.7,602.659 2715.35,596.522L2720.99,543.302C2721.64,537.161 2727.17,532.693 2733.28,533.363C2739.41,534.015 2743.87,539.515 2743.21,545.651L2737.57,598.88C2736.92,605.078 2731.33,609.475 2725.28,608.814Z" style="fill-rule:nonzero;"/>
        <path d="M2721.57,544.433C2721.43,538.264 2726.31,533.142 2732.48,532.996L2801.76,531.344C2807.93,531.046 2813.06,536.077 2813.21,542.25C2813.35,548.42 2808.47,553.542 2802.3,553.688L2733.02,555.339C2727.14,555.565 2721.72,550.806 2721.57,544.433Z" style="fill-rule:nonzero;"/>
        <path d="M2794.08,601.317L2791.83,542.381C2791.59,536.215 2796.4,531.024 2802.56,530.788C2808.89,530.609 2813.93,535.36 2814.16,541.53L2816.42,600.466C2816.65,606.632 2811.84,611.823 2805.68,612.06C2799.15,612.223 2794.31,607.221 2794.08,601.317Z" style="fill-rule:nonzero;"/>
        <path d="M2854.27,641.129C2838.62,628.103 2820.03,617.931 2800.51,611.718C2794.63,609.848 2791.38,603.562 2793.25,597.68C2795.12,591.805 2801.39,588.534 2807.29,590.422C2829.54,597.501 2850.73,609.095 2868.58,623.951C2873.32,627.898 2873.96,634.944 2870.02,639.688C2866.06,644.438 2859.01,645.073 2854.27,641.129Z" style="fill-rule:nonzero;"/>
        <path d="M2855.94,639.961C2851.54,635.629 2851.49,628.553 2855.82,624.155C2871.36,608.374 2888.74,594.307 2907.48,582.339C2912.67,579.021 2919.58,580.538 2922.91,585.74C2926.23,590.942 2924.71,597.854 2919.51,601.175C2902.18,612.241 2886.11,625.25 2871.74,639.841C2867.42,644.237 2860.33,644.289 2855.94,639.961Z" style="fill-rule:nonzero;"/>
        <path d="M2962.02,650.598C2946.44,632.194 2928.53,615.759 2908.77,601.746C2903.74,598.178 2902.55,591.2 2906.13,586.166C2909.7,581.127 2916.67,579.952 2921.71,583.521C2942.98,598.614 2962.29,616.323 2979.07,636.156C2983.06,640.867 2982.47,647.921 2977.76,651.908C2973.07,655.885 2966,655.317 2962.02,650.598Z" style="fill-rule:nonzero;"/>
        <path d="M2924.48,703.077C2920.15,698.683 2920.2,691.606 2924.6,687.274C2937.99,674.069 2949.01,658.896 2957.34,642.169C2960.1,636.644 2966.81,634.396 2972.33,637.153C2977.85,639.903 2980.1,646.615 2977.35,652.137C2967.92,671.075 2955.45,688.253 2940.28,703.193C2935.9,707.518 2928.83,707.483 2924.48,703.077Z" style="fill-rule:nonzero;"/>
        <path d="M2933.46,746.25L2921.19,702.942C2919.5,697.006 2922.95,690.828 2928.89,689.145C2934.78,687.456 2941,690.905 2942.69,696.846L2954.97,740.16C2956.65,746.098 2953.2,752.274 2947.26,753.959C2941.29,755.644 2935.14,752.171 2933.46,746.25Z" style="fill-rule:nonzero;"/>
        <path d="M3002.63,760.71C2986.54,756.279 2964.21,756.162 2946.2,755.115C2940.04,754.752 2935.34,749.462 2935.7,743.304C2936.06,737.141 2941.19,732.518 2947.51,732.801C2966.1,733.892 2989.62,733.942 3008.56,739.16C3014.52,740.801 3018.01,746.952 3016.37,752.903C3014.75,758.795 3008.65,762.358 3002.63,760.71Z" style="fill-rule:nonzero;"/>
        <path d="M3003.28,843.815C2997.12,843.4 2992.46,838.071 2992.88,831.913C2993.58,821.589 2993.34,810.13 2993.1,797.998C2992.78,782.228 2992.46,765.92 2994.13,750.117C2994.78,743.98 3000.26,739.521 3006.42,740.179C3012.55,740.83 3017,746.33 3016.35,752.467C3014.83,766.873 3015.14,782.464 3015.45,797.543C3015.7,810.181 3015.94,822.116 3015.19,833.419C3014.76,839.637 3009.37,844.238 3003.28,843.815Z" style="fill-rule:nonzero;"/>
        <path d="M3004.64,845.154C2985.68,845.154 2969.9,844.172 2951.64,843.033L2942.44,842.462C2936.27,842.091 2931.58,836.795 2931.96,830.632C2932.33,824.474 2937.54,819.777 2943.79,820.155L2953.03,820.727C2970.92,821.84 2986.37,822.804 3004.64,822.804C3010.81,822.804 3015.81,827.806 3015.81,833.979C3015.81,840.152 3010.81,845.154 3004.64,845.154Z" style="fill-rule:nonzero;"/>
        <path d="M2903.61,885.163C2899.22,880.819 2899.19,873.744 2903.53,869.36C2914.94,857.832 2923.83,845.635 2933.25,828.577C2936.23,823.179 2943.05,821.218 2948.43,824.197C2953.84,827.18 2955.8,833.979 2952.82,839.381C2942.35,858.345 2932.36,872.012 2919.41,885.083C2915.07,889.469 2908,889.507 2903.61,885.163Z" style="fill-rule:nonzero;"/>
        <path d="M2951.07,946.714C2947.09,946.714 2943.24,944.582 2941.22,940.832C2930.5,920.922 2917.93,901.784 2903.85,883.959C2900.03,879.113 2900.85,872.085 2905.7,868.262C2910.54,864.438 2917.56,865.261 2921.4,870.105C2936.27,888.953 2949.56,909.183 2960.9,930.238C2963.83,935.67 2961.79,942.45 2956.36,945.375C2954.67,946.281 2952.86,946.714 2951.07,946.714Z" style="fill-rule:nonzero;"/>
        <path d="M2878.19,995.715C2875.14,990.346 2877.02,983.524 2882.39,980.48C2898.65,971.251 2923.85,948.438 2941.62,929.926C2945.89,925.466 2952.97,925.335 2957.42,929.602C2961.87,933.873 2962.02,940.948 2957.74,945.4C2940.23,963.645 2912.88,988.865 2893.42,999.913C2888.02,1002.99 2881.22,1001.05 2878.19,995.715Z" style="fill-rule:nonzero;"/>
        <path d="M2879.63,997.687L2843.2,955.197C2839.18,950.512 2839.72,943.454 2844.41,939.438C2849.1,935.422 2856.15,935.968 2860.17,940.646L2896.59,983.136C2900.61,987.821 2900.07,994.878 2895.39,998.895C2890.7,1002.91 2883.65,1002.37 2879.63,997.687Z" style="fill-rule:nonzero;"/>
        <path d="M2785.17,967.286C2783.84,961.258 2787.65,955.296 2793.68,953.972C2812.21,949.893 2824.15,945.173 2846.45,938.194C2852.39,936.368 2858.62,939.643 2860.46,945.524C2862.3,951.414 2859.02,957.682 2853.13,959.526C2830.56,966.587 2818.23,971.455 2798.48,975.798C2792.43,977.133 2786.49,973.295 2785.17,967.286Z" style="fill-rule:nonzero;"/>
        <path d="M2777.54,1037.03C2771.56,1035.5 2767.95,1029.42 2769.47,1023.44L2785.33,961.258C2786.85,955.285 2792.93,951.658 2798.91,953.189C2804.89,954.714 2808.51,960.8 2806.98,966.78L2791.13,1028.96C2789.6,1034.96 2783.5,1038.55 2777.54,1037.03Z" style="fill-rule:nonzero;"/>
        <path d="M2780.83,1038.39C2780.75,1038.39 2780.68,1038.39 2780.61,1038.38C2755.64,1037.92 2743.26,1034.04 2713.77,1028.83C2707.7,1027.75 2703.64,1021.96 2704.71,1015.88C2705.78,1009.8 2711.61,1005.74 2717.66,1006.82C2747.91,1012.15 2758.13,1015.61 2781.02,1016.04C2787.2,1016.15 2792.1,1021.25 2791.99,1027.42C2791.88,1033.52 2786.9,1038.39 2780.83,1038.39Z" style="fill-rule:nonzero;"/>
        <path d="M2715.26,1029.11L2715.24,1029.11C2709.07,1029.1 2704.08,1024.08 2704.09,1017.91L2704.23,955.263C2704.25,949.097 2709.25,944.113 2715.41,944.113L2715.44,944.113C2721.61,944.128 2726.6,949.145 2726.58,955.313L2726.44,1017.96C2726.43,1024.12 2721.43,1029.11 2715.26,1029.11Z" style="fill-rule:nonzero;"/>
        <path d="M2707.94,967.679C2692.03,958.482 2674.05,951.373 2657.19,941.629C2651.85,938.54 2650.02,931.704 2653.11,926.36C2656.2,921.013 2663.04,919.201 2668.38,922.275C2683.99,931.309 2702.38,938.648 2719.13,948.333C2724.47,951.421 2726.29,958.257 2723.21,963.601C2720.13,968.92 2713.31,970.786 2707.94,967.679Z" style="fill-rule:nonzero;"/>
        <path d="M2601.32,982.794C2597.55,977.908 2598.46,970.891 2603.34,967.118C2621.08,953.433 2638.46,938.955 2654.99,924.091C2659.6,919.962 2666.66,920.351 2670.77,924.935C2674.9,929.525 2674.53,936.59 2669.94,940.716C2652.98,955.95 2635.17,970.789 2616.99,984.813C2612.11,988.585 2605.1,987.677 2601.32,982.794Z" style="fill-rule:nonzero;"/>
        <path d="M2601.27,986.071C2578.67,972.073 2558.83,954.528 2542.29,933.927C2538.42,929.114 2539.2,922.083 2544,918.22C2548.84,914.349 2555.86,915.127 2559.72,919.937C2574.66,938.555 2592.61,954.411 2613.04,967.067C2618.29,970.319 2619.9,977.206 2616.66,982.455C2613.39,987.717 2606.5,989.308 2601.27,986.071Z" style="fill-rule:nonzero;"/>
        <path d="M2543.95,936.132C2539.4,931.959 2539.09,924.888 2543.26,920.34L2591.18,868.123C2595.36,863.576 2602.42,863.274 2606.97,867.443C2611.51,871.615 2611.82,878.688 2607.65,883.234L2559.73,935.451C2555.57,939.983 2548.51,940.315 2543.95,936.132Z" style="fill-rule:nonzero;"/>
        <path d="M2588.19,881.485C2580.26,864.64 2569.57,846.071 2561.33,828.577C2558.71,822.993 2561.1,816.336 2566.69,813.709C2572.26,811.079 2578.93,813.473 2581.56,819.061C2589.58,836.086 2600.19,854.492 2608.42,871.961C2611.04,877.545 2608.65,884.206 2603.06,886.832C2597.46,889.475 2590.81,887.044 2588.19,881.485Z" style="fill-rule:nonzero;"/>
        <path d="M2571,834.95L2510.03,828.348C2503.89,827.682 2499.46,822.171 2500.12,816.034C2500.78,809.9 2506.29,805.444 2512.43,806.128L2573.4,812.73C2579.54,813.396 2583.97,818.907 2583.31,825.045C2582.65,831.156 2577.16,835.61 2571,834.95Z" style="fill-rule:nonzero;"/>
        <path d="M2508.27,826.991C2502.13,826.369 2497.65,820.883 2498.28,814.742L2505.52,743.464C2506.14,737.326 2511.73,732.827 2517.76,733.478C2523.9,734.1 2528.38,739.586 2527.75,745.727L2520.51,817.005C2519.88,823.253 2514.26,827.625 2508.27,826.991Z" style="fill-rule:nonzero;"/>
        <path d="M2515.92,756.829C2509.76,756.494 2505.04,751.23 2505.36,745.064C2505.7,738.901 2510.99,734.217 2517.13,734.508C2539.07,735.689 2561.58,732.587 2582.28,725.525C2588.17,723.532 2594.48,726.66 2596.47,732.499C2598.46,738.342 2595.33,744.689 2589.5,746.683C2566.32,754.578 2541.02,758.158 2515.92,756.829Z" style="fill-rule:nonzero;"/>
        <path d="M2581.6,745.744C2575.86,743.493 2573.02,737.007 2575.28,731.263L2594.83,681.381C2597.08,675.626 2603.55,672.817 2609.32,675.055C2615.06,677.307 2617.9,683.793 2615.64,689.537L2596.08,739.418C2593.88,745.055 2587.48,748.033 2581.6,745.744Z" style="fill-rule:nonzero;"/>
        <path d="M2596.54,691.236L2552.57,640.005C2548.55,635.319 2549.09,628.266 2553.78,624.246C2558.45,620.229 2565.52,620.769 2569.54,625.446L2613.51,676.685C2617.52,681.366 2616.99,688.424 2612.3,692.443C2607.59,696.483 2600.54,695.894 2596.54,691.236Z" style="fill-rule:nonzero;"/>
        <path d="M2552.21,638.782C2548.43,633.908 2549.32,626.887 2554.19,623.104C2564.12,615.398 2573.33,606.843 2583.09,597.785C2592.78,588.781 2602.8,579.476 2613.53,571.152C2618.4,567.365 2625.43,568.257 2629.21,573.132C2632.99,578.01 2632.1,585.027 2627.22,588.811C2617.28,596.526 2608.06,605.09 2598.29,614.158C2588.62,623.151 2578.61,632.449 2567.9,640.762C2563.03,644.545 2556,643.66 2552.21,638.782Z" style="fill-rule:nonzero;"/>
        <path d="M2865.33,830.513C2842.67,874.252 2788.44,899.595 2739.47,889.548C2690.58,879.35 2651.45,834.443 2648.96,785.609C2646.55,736.623 2680.98,687.999 2728.7,673.63C2764.66,662.744 2790.88,665.632 2828.65,687.049L2843.48,697.019C2880.26,730.063 2888.15,786.859 2865.33,830.513Z" style="fill-rule:nonzero;"/>
        <path d="M2731.94,684.324C2689.52,697.097 2657.98,741.343 2660.12,785.062C2662.36,829.145 2697.45,869.367 2741.75,878.607C2786.04,887.691 2834.96,864.82 2855.41,825.368C2855.42,825.357 2855.43,825.347 2855.44,825.336C2876.45,785.127 2868.5,735.013 2836.57,705.846L2822.77,696.562C2788.17,677.017 2765.2,674.263 2731.94,684.324ZM2737.21,900.492C2683.27,889.24 2640.54,840.098 2637.79,786.175C2635.12,731.757 2672.83,678.78 2725.48,662.927C2765.06,650.947 2794.52,654.851 2834.16,677.328C2834.41,677.467 2834.65,677.616 2834.88,677.776C2850.37,688.235 2849.93,687.798 2850.94,688.704C2890.82,724.515 2901.04,786.316 2875.25,835.667C2850.25,883.888 2790.77,911.493 2737.21,900.492Z" style="fill-rule:nonzero;"/>
        <path d="M3750.07,4200.09L3749.82,4200.09C3743.65,4199.95 3738.76,4194.84 3738.89,4188.67C3740.12,4133.1 3721.24,4076.09 3687.08,4032.25C3683.29,4027.38 3684.17,4020.36 3689.03,4016.57C3719.13,3993.08 3731.66,3949.94 3718.84,3913.98C3717.85,3911.2 3717.99,3908.14 3719.25,3905.46C3740.9,3859.5 3743.86,3805.58 3727.37,3757.52C3725.37,3751.68 3728.48,3745.33 3734.31,3743.32C3740.17,3741.32 3746.5,3744.43 3748.51,3750.27C3766.39,3802.35 3763.74,3860.63 3741.35,3910.88C3753.74,3951.22 3741.36,3997.78 3711.06,4026.99C3744.76,4074.01 3762.52,4131.19 3761.24,4189.16C3761.1,4195.25 3756.12,4200.09 3750.07,4200.09Z" style="fill-rule:nonzero;"/>
        <path d="M3281.87,3952.77C3280.83,3952.77 3279.77,3952.62 3278.72,3952.32C3272.8,3950.58 3269.4,3944.37 3271.14,3938.45L3322.13,3764.58C3323.86,3758.66 3330.11,3755.28 3336,3757C3341.92,3758.74 3345.31,3764.94 3343.58,3770.87L3292.59,3944.73C3291.16,3949.61 3286.7,3952.77 3281.87,3952.77Z" style="fill-rule:nonzero;"/>
        <path d="M3362.46,3982.02C3361.03,3982.02 3359.58,3981.74 3358.17,3981.16C3352.47,3978.78 3349.78,3972.24 3352.15,3966.54L3388.39,3879.57C3390.77,3873.87 3397.31,3871.18 3403,3873.55C3408.7,3875.93 3411.39,3882.47 3409.02,3888.16L3372.79,3975.14C3371,3979.43 3366.84,3982.02 3362.46,3982.02Z" style="fill-rule:nonzero;"/>
        <path d="M4021.99,4206.69C4021.1,4206.69 4020.19,4206.58 4019.27,4206.35C4013.29,4204.85 4009.65,4198.79 4011.15,4192.8L4025.64,4134.82C4027.14,4128.83 4033.2,4125.18 4039.19,4126.69C4045.17,4128.18 4048.82,4134.25 4047.32,4140.24L4032.83,4198.22C4031.56,4203.3 4027,4206.69 4021.99,4206.69Z" style="fill-rule:nonzero;"/>
        <path d="M3956.75,4170.45C3955.28,4170.45 3953.79,4170.16 3952.36,4169.55C3946.68,4167.11 3944.06,4160.55 3946.49,4154.87L3968.23,4104.14C3970.66,4098.46 3977.23,4095.83 3982.9,4098.27C3988.58,4100.7 3991.2,4107.27 3988.77,4112.94L3967.03,4163.67C3965.22,4167.91 3961.09,4170.45 3956.75,4170.45Z" style="fill-rule:nonzero;"/>
        <path d="M3683.58,2991.35C3683.43,2991.35 3683.29,2991.35 3683.15,2991.34C3676.98,2991.11 3672.17,2985.92 3672.4,2979.75L3678.06,2829.88C3678.17,2826.97 3679.42,2824.22 3681.53,2822.2C3708,2797.06 3719.13,2756.55 3709.23,2721.41C3707.57,2715.47 3711.02,2709.3 3716.97,2707.63C3722.92,2705.97 3729.07,2709.42 3730.75,2715.36C3742.4,2756.76 3730.15,2804.27 3700.23,2835.14L3694.74,2980.6C3694.51,2986.62 3689.56,2991.35 3683.58,2991.35Z" style="fill-rule:nonzero;"/>
        <path d="M4071.24,2620.42C4065.66,2620.42 4060.15,2619.51 4054.92,2617.66C4049.1,2615.6 4046.05,2609.22 4048.11,2603.4C4050.17,2597.59 4056.56,2594.53 4062.37,2596.59C4071.47,2599.8 4082.43,2597.74 4091.7,2591.06C4100.97,2584.38 4106.41,2574.64 4106.24,2565.01C4106.13,2558.83 4111.05,2553.74 4117.22,2553.63C4123.06,2553.63 4128.48,2558.44 4128.59,2564.61C4128.88,2581.58 4119.97,2598.24 4104.76,2609.2C4094.52,2616.58 4082.73,2620.42 4071.24,2620.42Z" style="fill-rule:nonzero;"/>
        <path d="M4239.63,2431.84C4234.77,2431.84 4230.29,2428.65 4228.89,2423.74C4227.19,2417.81 4230.63,2411.62 4236.56,2409.92C4241.75,2408.44 4246.45,2404.12 4249.14,2398.39C4251.83,2392.65 4252.13,2386.28 4249.95,2381.34C4248.16,2377.29 4248.93,2372.57 4251.91,2369.3C4254.88,2366.04 4259.51,2364.82 4263.7,2366.22C4265.65,2365.87 4273.35,2359.32 4279.95,2345.44C4286.49,2331.65 4286.7,2321.63 4285.37,2319.56C4282.07,2314.45 4283.35,2307.46 4288.41,2304.06C4293.46,2300.66 4300.2,2301.77 4303.69,2306.76C4315.31,2323.38 4303.09,2354.23 4290.71,2370.83C4284.66,2378.94 4278.86,2383.55 4273.69,2386.01C4274.13,2393.28 4272.69,2400.81 4269.38,2407.88C4263.91,2419.54 4254.19,2428.12 4242.71,2431.41C4241.69,2431.7 4240.65,2431.84 4239.63,2431.84Z" style="fill-rule:nonzero;"/>
        <path d="M3239.27,2590.5L3239.05,2590.5C3232.88,2590.38 3227.97,2585.28 3228.08,2579.11C3229.09,2525.83 3216.97,2472.5 3193.04,2424.9C3190.27,2419.38 3192.49,2412.67 3198.01,2409.89C3203.51,2407.13 3210.24,2409.34 3213.01,2414.86C3238.57,2465.69 3251.51,2522.64 3250.43,2579.54C3250.32,2585.64 3245.33,2590.5 3239.27,2590.5Z" style="fill-rule:nonzero;"/>
        <path d="M3392.83,2354.7C3386.8,2353.41 3382.95,2347.48 3384.24,2341.44C3388.39,2321.98 3377.65,2299.87 3359.79,2291.09L3358.11,2290.29C3348.11,2285.62 3343.59,2281.5 3339.17,2269.28C3334.14,2255.35 3330.52,2240.86 3328.4,2226.2C3327.51,2220.09 3331.75,2214.42 3337.86,2213.54C3344.05,2212.62 3349.63,2216.89 3350.52,2223C3352.42,2236.17 3355.67,2249.18 3360.19,2261.68C3360.78,2263.33 3361.91,2266.43 3363.07,2267.55C3364.03,2268.46 3366.66,2269.63 3369.63,2271.03C3396.72,2284.33 3412.39,2316.61 3406.09,2346.11C3404.82,2352.08 3398.94,2356 3392.83,2354.7Z" style="fill-rule:nonzero;"/>
        <path d="M3775.65,2458.87C3770.75,2458.87 3766.25,2455.62 3764.88,2450.66L3753.1,2407.86C3752.34,2405.11 3750.33,2397.81 3755.08,2391.36C3756.92,2388.85 3759.15,2387.39 3760.94,2386.45C3760.69,2379.56 3757.76,2372.77 3754.66,2365.62C3753.76,2363.52 3752.85,2361.43 3752,2359.34C3744.91,2341.85 3744.88,2327.26 3751.92,2315.98C3754.05,2312.55 3756.6,2309.87 3758.86,2307.51C3760.31,2306 3761.67,2304.57 3762.61,2303.24C3767.26,2296.73 3766.69,2286.32 3765.63,2275.33C3765.03,2269.18 3769.53,2263.72 3775.67,2263.13C3781.73,2262.59 3787.28,2267.03 3787.87,2273.17C3789,2284.8 3790.7,2302.36 3780.8,2316.23C3778.94,2318.84 3776.87,2321.02 3775.03,2322.93C3773.37,2324.67 3771.81,2326.31 3770.88,2327.8C3767.1,2333.87 3769.79,2343.73 3772.71,2350.94C3773.5,2352.88 3774.34,2354.81 3775.18,2356.75C3779.18,2366 3783.72,2376.49 3783.33,2388.33C3783.14,2394.22 3781.27,2398.88 3777.8,2402.19C3776.95,2402.99 3776.09,2403.64 3775.26,2404.17L3786.43,2444.72C3788.07,2450.67 3784.58,2456.83 3778.63,2458.47C3777.63,2458.74 3776.63,2458.87 3775.65,2458.87Z" style="fill-rule:nonzero;"/>
        <path d="M3749.83,3152.06C3748.67,3152.06 3747.49,3151.87 3746.32,3151.49C3740.46,3149.55 3737.28,3143.23 3739.22,3137.37C3742.96,3126.05 3744.5,3113.8 3743.65,3101.94C3743.22,3095.78 3747.85,3090.43 3754.01,3090C3760.07,3089.53 3765.51,3094.19 3765.95,3100.35C3766.99,3115.1 3765.09,3130.33 3760.44,3144.39C3758.89,3149.08 3754.52,3152.06 3749.83,3152.06Z" style="fill-rule:nonzero;"/>
        <path d="M3116.68,2957.33C3110.7,2955.81 3107.08,2949.73 3108.6,2943.74C3110.13,2937.76 3116.19,2934.15 3122.18,2935.66C3123.37,2935.99 3126.92,2933.04 3127.34,2929.31C3128.02,2923.22 3124.3,2916.15 3120.58,2910.05C3114.17,2899.53 3106.75,2889.56 3098.52,2880.42C3091.86,2873.02 3097.5,2861.08 3107.67,2861.8C3118.21,2862.6 3122.59,2860.46 3122.98,2859.36C3123.09,2859.06 3123.28,2858.03 3122.73,2855.1C3120.89,2845.32 3114.91,2833.77 3111.63,2822.5C3106.54,2804.98 3108.89,2788.85 3118.09,2778.23C3122.14,2773.56 3129.18,2773.05 3133.86,2777.1C3138.52,2781.14 3139.02,2788.2 3134.99,2792.86C3130.91,2797.57 3130.2,2806.31 3133.09,2816.26C3137.33,2830.89 3149.46,2851.42 3144.07,2866.77C3142.09,2872.39 3137.76,2878.51 3128.5,2881.83C3132.47,2887.19 3136.2,2892.73 3139.66,2898.42C3145.35,2907.74 3150.97,2919 3149.56,2931.78C3148.61,2940.25 3143.64,2948.54 3136.6,2953.42C3130.74,2957.48 3123.7,2959.1 3116.68,2957.33Z" style="fill-rule:nonzero;"/>
        <path d="M1959.31,3127.41C1930.69,3142.96 1911.24,3170.94 1889.61,3196.05C1867.73,3221.46 1838.97,3246.51 1804.62,3248.91C1782.94,3250.42 1762.34,3242.55 1743.57,3233.04C1671.81,3196.7 1614.71,3134.11 1586.95,3059.64C1558.81,2984.13 1561.91,2899.3 1595.42,2826.08C1600.7,2936.82 1638.31,3045.25 1701.89,3135.55C1724.18,3167.2 1752.39,3198.18 1791.82,3205.96C1827.33,3212.96 1865.35,3199.09 1894.22,3177.6C1922.64,3156.44 1943.97,3128.41 1964.62,3101.12C1954.77,3126.86 1935.08,3149.52 1910.05,3163.72L1959.31,3127.41Z" style="fill:rgb(194,196,196);fill-rule:nonzero;"/>
        <path d="M1722.34,2933.39C1722.37,2984.91 1767.56,3025.43 1822.46,3024.75C1874.46,3023.72 1916.75,2983.45 1916.72,2934.98C1916.69,2886.41 1874.28,2845.45 1822.19,2843.67C1767.81,2841.84 1722.31,2881.83 1722.34,2933.39ZM1699.99,2933.41C1699.94,2867.95 1757.54,2818.89 1822.95,2821.33C1886.94,2823.52 1939.03,2874.49 1939.07,2934.96C1939.1,2995.53 1886.99,3045.83 1822.9,3047.09C1756.83,3048.55 1700.02,2998.21 1699.99,2933.41Z" style="fill-rule:nonzero;"/>
        <path d="M1977.07,3012.88C1975.72,3015.35 1973.16,3016.74 1970.54,3016.74C1964.92,3016.74 1961.27,3010.68 1964.02,3005.7C1996.8,2946.13 2010.5,2876.34 2002.61,2809.19C2002.13,2805.11 2005.05,2801.4 2009.13,2800.92C2013.19,2800.43 2016.93,2803.36 2017.41,2807.45C2025.66,2877.66 2011.34,2950.62 1977.07,3012.88ZM1948.93,3050.4C1948.55,3050.41 1950.28,3050.37 1945.28,3050.48C1941.23,3050.48 1937.91,3047.25 1937.83,3043.19C1937.74,3039.08 1941,3035.67 1945.12,3035.58L1948.61,3035.5C1952.76,3035.6 1956.13,3038.68 1956.22,3042.79C1956.31,3046.9 1953.05,3050.31 1948.93,3050.4ZM1822.69,3035.92C1761.93,3037.11 1711.19,2991.23 1711.16,2933.4C1711.13,2875.57 1761.81,2830.42 1822.57,2832.5C1881.44,2834.51 1927.86,2880.36 1927.89,2934.97C1927.92,2989.58 1881.55,3034.76 1822.69,3035.92ZM2061.31,2769.9C2060.81,2762.18 2057.12,2754.8 2051.16,2749.66C2045.15,2744.45 2037.6,2741.94 2029.76,2742.55C1972.77,2747.16 1908.63,2712.52 1842.41,2673.52C1833.48,2668.26 1822.69,2667.56 1813.58,2671.63C1745.22,2702.16 1665.65,2733.8 1585.78,2722.96C1567.08,2720.42 1550.1,2733.03 1549.44,2750.99C1546.06,2841.47 1542.23,2944.01 1587.11,3035.31C1634.69,3132.12 1721.29,3207.36 1818.76,3236.57C1827.21,3239.1 1836.31,3237.7 1843.81,3233.26C1872.16,3216.49 1924.82,3182.21 1958.92,3141.02C1992.41,3100.57 2016.06,3060.7 2031.21,3019.14C2057.24,2947.77 2067.37,2863.92 2061.31,2769.9Z" style="fill-rule:nonzero;"/>
        <path d="M1581.5,1590.62C1569.67,1590.62 1558.64,1594.7 1550.87,1602.03C1546.6,1606.06 1541.52,1612.83 1541.52,1622.27L1541.52,2074.89C1541.52,2084.33 1546.6,2091.1 1550.87,2095.13C1559.28,2103.07 1571.52,2107.22 1584.49,2106.46L2084.1,2077.63C2104.96,2076.43 2121.3,2062.56 2121.3,2046.06L2121.3,1651.09C2121.3,1634.6 2104.96,1620.73 2084.1,1619.53L1584.5,1590.7C1583.5,1590.65 1582.49,1590.62 1581.5,1590.62ZM1581.53,2128.89C1564.01,2128.89 1547.44,2122.63 1535.52,2111.38C1524.97,2101.42 1519.17,2088.47 1519.17,2074.89L1519.17,1622.27C1519.17,1608.69 1524.97,1595.74 1535.52,1585.78C1548.41,1573.63 1566.79,1567.29 1585.79,1568.39L2085.38,1597.22C2118.06,1599.1 2143.65,1622.77 2143.65,1651.09L2143.65,2046.06C2143.65,2074.39 2118.06,2098.06 2085.38,2099.94L1585.78,2128.77C1584.36,2128.85 1582.94,2128.89 1581.53,2128.89Z" style="fill-rule:nonzero;"/>
        <path d="M2020.31,1598.35C2020.31,1484.48 1982.74,1336.18 1835.8,1333.35C1684.78,1330.43 1649.96,1461.8 1649.96,1575.68L1591.76,1579.44C1591.76,1429.77 1637.52,1257.12 1836.02,1260.95C2029.13,1264.67 2078.51,1459.57 2078.51,1609.24" style="fill-rule:nonzero;"/>
        <path d="M2078.51,1620.42C2072.34,1620.42 2067.33,1615.42 2067.33,1609.24C2067.33,1531.21 2050.63,1276.26 1835.8,1272.12C1771.27,1270.89 1719.54,1289.07 1681.71,1326.18C1619.77,1386.93 1604.39,1488.63 1603.04,1567.51L1638.89,1565.2C1641.56,1426.59 1696.23,1319.52 1836.03,1322.17C2017.39,1325.67 2031.48,1534.45 2031.48,1598.35C2031.48,1604.53 2026.48,1609.53 2020.31,1609.53C2014.14,1609.53 2009.13,1604.53 2009.13,1598.35C2009.13,1523.04 1992.23,1347.54 1835.59,1344.52C1787.42,1343.53 1748.52,1357.17 1720.26,1384.89C1671.39,1432.82 1661.14,1515.1 1661.14,1575.68C1661.14,1581.57 1656.56,1586.45 1650.68,1586.83L1592.48,1590.59C1589.36,1590.78 1586.37,1589.71 1584.12,1587.59C1581.87,1585.48 1580.59,1582.53 1580.59,1579.44C1580.59,1393.12 1650.04,1245.92 1836.24,1249.77C2071.41,1254.31 2089.68,1526.06 2089.68,1609.24C2089.68,1615.42 2084.68,1620.42 2078.51,1620.42Z" style="fill-rule:nonzero;"/>
        <path d="M1897.22,1806.05C1897.22,1838.28 1876.65,1864.41 1851.28,1864.41C1825.9,1864.41 1805.33,1838.28 1805.33,1806.05C1805.33,1773.82 1825.9,1747.69 1851.28,1747.69C1876.65,1747.69 1897.22,1773.82 1897.22,1806.05Z" style="fill-rule:nonzero;"/>
        <path d="M1851.28,1758.87C1832.1,1758.87 1816.51,1780.03 1816.51,1806.05C1816.51,1832.07 1832.1,1853.24 1851.28,1853.24C1870.45,1853.24 1886.05,1832.07 1886.05,1806.05C1886.05,1780.03 1870.45,1758.87 1851.28,1758.87ZM1851.28,1875.59C1819.78,1875.59 1794.15,1844.39 1794.15,1806.05C1794.15,1767.71 1819.78,1736.52 1851.28,1736.52C1882.77,1736.52 1908.4,1767.71 1908.4,1806.05C1908.4,1844.39 1882.77,1875.59 1851.28,1875.59Z" style="fill-rule:nonzero;"/>
        <rect x="1837.62" y="1844.54" width="22.35" height="124.17" style="fill-rule:nonzero;"/>
        <path d="M1859.97,1979.89L1837.62,1979.89C1831.45,1979.89 1826.44,1974.89 1826.44,1968.71L1826.44,1844.55C1826.44,1838.37 1831.45,1833.37 1837.62,1833.37L1859.97,1833.37C1866.14,1833.37 1871.15,1838.37 1871.15,1844.55L1871.15,1968.71C1871.15,1974.89 1866.14,1979.89 1859.97,1979.89Z" style="fill-rule:nonzero;"/>
        <path d="M1498.45,1599.97C1482.59,1623.43 1479.39,1652.88 1477.33,1681.05C1468.73,1798.72 1472.01,1916.92 1477.48,2034.77C1478.72,2061.43 1478.56,2083.69 1496.15,2103.91C1510.97,2120.94 1525.66,2126.71 1548.3,2128.34C1574.38,2130.22 1611.36,2127.65 1630.25,2115.18C1599.49,2118.05 1555.37,2113.76 1537.41,2088.84C1524.89,2071.5 1526.65,2048.17 1528.43,2026.92C1537.49,1918.75 1533.28,1809.96 1527.89,1701.55C1526.42,1671.9 1525.08,1640.98 1537.23,1613.85C1548.93,1587.74 1577.9,1565.47 1607.89,1572.4C1555.75,1570.12 1521,1566.61 1498.45,1599.97Z" style="fill-rule:nonzero;"/>
        <path d="M373.352,1547.46L377.237,1995.58C377.27,1999.5 380.652,2002.53 384.723,2002.07C542.72,1982.9 710.102,1981.52 882.212,1997.96C884.832,1998.23 886.585,1996.99 887.4,1996.23C888.2,1995.5 889.546,1993.88 889.524,1991.33L885.646,1542.91C885.615,1539.21 882.519,1536.03 878.349,1536.39C705.009,1553.07 542.188,1554.52 380.583,1540.83C376.774,1540.49 373.317,1543.45 373.352,1547.46ZM354.886,1995.77L351.001,1547.65C350.863,1530.5 365.566,1517.09 382.468,1518.56C542.698,1532.13 704.201,1530.68 876.21,1514.14C893.188,1512.54 907.86,1525.71 907.997,1542.71L911.875,1991.13C911.948,1999.31 908.536,2007.18 902.504,2012.71C896.451,2018.26 888.258,2020.98 880.088,2020.21C709.563,2003.91 543.804,2005.28 387.415,2024.26C370.158,2026.35 355.023,2013.01 354.886,1995.77Z" style="fill-rule:nonzero;"/>
        <path d="M373.743,2004.87C423.515,1929.1 504.584,1803.21 562.536,1718.59C614.104,1800.3 672.208,1905.61 719.334,1979.92C604.536,1986.49 488.541,1998.3 373.743,2004.87Z" style="fill-rule:nonzero;"/>
        <path d="M562.138,1739.02C510.604,1814.93 444.249,1917.51 395.294,1992.38C496.389,1986.04 598.584,1976.15 699.857,1969.89C658.583,1903.31 606.943,1811.29 562.138,1739.02ZM364.068,2010.45C361.958,2006.79 362.089,2002.26 364.402,1998.73C413.165,1924.54 494.852,1797.64 553.32,1712.28C557.983,1705.46 567.814,1706.01 571.989,1712.63C622.895,1793.29 681.954,1900.1 728.771,1973.93C733.323,1981.1 728.492,1990.59 719.975,1991.08C605.73,1997.61 488.89,2009.48 374.385,2016.02C374.167,2016.03 366.109,2014 364.068,2010.45Z" style="fill-rule:nonzero;"/>
        <path d="M541.468,1996.55C602.703,1917.7 679.075,1848.64 737.553,1784.38C797.094,1852.16 852.313,1921.66 899.439,1995.97C784.642,2002.53 656.266,1989.98 541.468,1996.55Z" style="fill-rule:nonzero;"/>
        <path d="M879.542,1985.73C841.178,1927.23 795.473,1867.9 737.341,1801.11C684.734,1857.8 620.554,1917.4 565.594,1984.26C668.231,1980.72 778.216,1989.66 879.542,1985.73ZM821.847,2009.1C729.494,2009.1 630.738,2002.64 542.108,2007.7C532.337,2008.16 526.853,1997.13 532.643,1989.69C594.531,1910.01 670.851,1841.08 729.287,1776.86C731.426,1774.5 734.54,1773.43 737.647,1773.2C740.833,1773.23 743.846,1774.61 745.948,1777C814.273,1854.78 866.046,1922.45 908.877,1989.98C911.002,1993.33 911.191,1997.55 909.387,2001.07C907.575,2004.6 904.032,2006.9 900.082,2007.13C874.639,2008.58 848.374,2009.1 821.847,2009.1Z" style="fill-rule:nonzero;"/>
        <path d="M708.839,1671.35C709.021,1692.42 692.092,1709.64 671.027,1709.83C649.961,1710.01 632.737,1693.08 632.555,1672.01C632.373,1650.95 649.301,1633.72 670.367,1633.54C691.432,1633.36 708.657,1650.29 708.839,1671.35Z" style="fill-rule:nonzero;"/>
        <path d="M1472.32,1560.19L1201.86,1560.19C1195.7,1560.19 1190.69,1555.19 1190.69,1549.02C1190.69,1542.85 1195.7,1537.84 1201.86,1537.84L1472.32,1537.84C1478.49,1537.84 1483.5,1542.85 1483.5,1549.02C1483.5,1555.19 1478.49,1560.19 1472.32,1560.19Z" style="fill-rule:nonzero;"/>
        <path d="M1371.01,1719.13L1186.96,1719.13C1180.79,1719.13 1175.79,1714.13 1175.79,1707.96C1175.79,1701.78 1180.79,1696.78 1186.96,1696.78L1371.01,1696.78C1377.18,1696.78 1382.18,1701.78 1382.18,1707.96C1382.18,1714.13 1377.18,1719.13 1371.01,1719.13Z" style="fill-rule:nonzero;"/>
        <rect x="2215.09" y="1469.55" width="273.18" height="94.37" style="fill-rule:nonzero;"/>
        <rect x="2244.89" y="1633.46" width="193.71" height="74.5" style="fill-rule:nonzero;"/>
        <path d="M1444.68,2326.73L1310.63,2330.63L1307.09,2209L1441.14,2205.09L1444.68,2326.73Z" style="fill-rule:nonzero;"/>
        <path d="M1732.63,2318.35L1598.58,2322.25L1595.04,2200.62L1729.09,2196.71L1732.63,2318.35Z" style="fill-rule:nonzero;"/>
        <path d="M2010.65,2310.26L1876.61,2314.16L1873.07,2192.53L2007.11,2188.63L2010.65,2310.26Z" style="fill-rule:nonzero;"/>
        <path d="M2291.16,2302.1L2157.11,2306L2153.57,2184.36L2287.62,2180.46L2291.16,2302.1Z" style="fill-rule:nonzero;"/>
        <path d="M3807.6,1338.09C3776,1360.64 3737.49,1358.53 3701.28,1355.79C3605.79,1348.57 3510.31,1341.35 3414.82,1334.12C3394.16,1332.56 3371.63,1330.02 3356.66,1311.9C3341.68,1293.79 3342.78,1254.55 3362.72,1247.53C3368.29,1272.16 3386.25,1289.77 3405.51,1297.58C3424.76,1305.4 3445.41,1305.03 3465.62,1304.59C3560.02,1302.53 3654.42,1300.46 3748.81,1298.39C3786.01,1297.58 3813.66,1290.83 3838.89,1255.78C3857.03,1281.68 3825.11,1325.6 3807.6,1338.09Z" style="fill:rgb(194,196,196);fill-rule:nonzero;"/>
        <path d="M3768.51,1209.7L3768.47,1209.7L3455.12,1207.97C3451.01,1207.94 3447.69,1204.59 3447.71,1200.48C3447.73,1196.37 3451.07,1193.07 3455.16,1193.07L3455.21,1193.07L3768.56,1194.8C3772.67,1194.82 3775.99,1198.17 3775.96,1202.29C3775.94,1206.39 3772.61,1209.7 3768.51,1209.7ZM3604.57,1269.63L3458.83,1269.63C3454.71,1269.63 3451.38,1266.29 3451.38,1262.18C3451.38,1258.06 3454.71,1254.73 3458.83,1254.73L3604.57,1254.73C3608.69,1254.73 3612.02,1258.06 3612.02,1262.18C3612.02,1266.29 3608.69,1269.63 3604.57,1269.63ZM3853.62,1188.6C3853.53,1160.79 3835.25,1138.91 3811.99,1138.78L3387.87,1136.44L3387.67,1136.44C3377.89,1136.44 3368.4,1140.51 3360.94,1147.9C3351.4,1157.35 3345.9,1171.32 3345.85,1186.22L3345.53,1278.8C3345.44,1306.35 3364.11,1328.87 3387.16,1329L3655.43,1330.48L3773.66,1416.72C3775.61,1418.14 3777.93,1418.86 3780.25,1418.86C3781.97,1418.86 3783.71,1418.47 3785.3,1417.66C3789.04,1415.76 3791.41,1411.92 3791.42,1407.73L3791.69,1330.16L3811.88,1330.27L3812.07,1330.27C3821.9,1330.27 3831.42,1326.17 3838.9,1318.71C3848.47,1309.17 3853.93,1295.09 3853.88,1280.1L3853.62,1188.6Z" style="fill-rule:nonzero;"/>
        <path d="M3949.67,1237.09C3944.57,1237.09 3939.97,1233.58 3938.78,1228.41C3920.88,1150.25 3878.83,1076.98 3820.4,1022.08C3815.9,1017.85 3815.68,1010.78 3819.9,1006.29C3824.13,1001.78 3831.2,1001.56 3835.7,1005.79C3897.33,1063.69 3941.69,1140.98 3960.57,1223.42C3961.95,1229.43 3958.19,1235.43 3952.17,1236.8C3951.33,1237 3950.49,1237.09 3949.67,1237.09Z" style="fill-rule:nonzero;"/>
        <path d="M3993.11,1128.11C3987.96,1128.11 3983.32,1124.51 3982.2,1119.27C3974.24,1082.14 3956.46,1047.72 3930.8,1019.73C3926.63,1015.18 3926.94,1008.11 3931.49,1003.94C3936.04,999.774 3943.11,1000.07 3947.27,1004.62C3975.62,1035.54 3995.26,1073.57 4004.05,1114.58C4005.35,1120.62 4001.51,1126.56 3995.47,1127.85C3994.68,1128.02 3993.89,1128.11 3993.11,1128.11Z" style="fill-rule:nonzero;"/>
        <path d="M1573.18,3451.65C1490.31,3402.02 1423.65,3325.83 1385.46,3237.12C1383.03,3231.44 1385.65,3224.87 1391.31,3222.43C1397,3219.99 1403.56,3222.61 1406,3228.28C1442.34,3312.72 1505.79,3385.24 1584.66,3432.48C1589.96,3435.65 1591.68,3442.52 1588.51,3447.81C1585.33,3453.11 1578.45,3454.82 1573.18,3451.65Z" style="fill-rule:nonzero;"/>
        <path d="M1423.53,3454.82C1395.56,3432.39 1369.65,3407.11 1346.53,3379.68C1342.55,3374.97 1343.14,3367.92 1347.86,3363.94C1352.58,3359.95 1359.63,3360.56 1363.61,3365.28C1385.81,3391.6 1410.67,3415.86 1437.51,3437.39C1442.33,3441.25 1443.1,3448.29 1439.24,3453.1C1435.38,3457.92 1428.33,3458.68 1423.53,3454.82Z" style="fill-rule:nonzero;"/>
        <path d="M1797.88,2719.13C1791.71,2719.13 1786.7,2714.13 1786.7,2707.96L1786.7,2441.8C1786.7,2435.63 1791.71,2430.63 1797.88,2430.63C1804.05,2430.63 1809.06,2435.63 1809.06,2441.8L1809.06,2707.96C1809.06,2714.13 1804.05,2719.13 1797.88,2719.13Z" style="fill-rule:nonzero;"/>
        <path d="M1052.87,2328.67L646.826,2328.67C640.656,2328.67 635.65,2323.67 635.65,2317.5L635.65,2020.87C635.65,2014.69 640.656,2009.69 646.826,2009.69C652.996,2009.69 658.001,2014.69 658.001,2020.87L658.001,2306.32L1052.87,2306.32C1059.04,2306.32 1064.04,2311.32 1064.04,2317.5C1064.04,2323.67 1059.04,2328.67 1052.87,2328.67Z" style="fill-rule:nonzero;"/>
    </g>
</svg>
